<svg width="22" height="22" viewBox="0 0 22 22" fill="none" xmlns="http://www.w3.org/2000/svg">
<g clip-path="url(#clip0_618_3675)">
<path d="M15.5867 16.5024V11.0001C15.5869 10.5136 15.3937 10.0471 15.0497 9.70306C14.7057 9.35907 14.2391 9.16588 13.7526 9.16602H4.58214C4.09567 9.16588 3.62908 9.35907 3.28509 9.70306C2.9411 10.0471 2.74791 10.5136 2.74805 11.0001V16.5024C2.74791 16.9889 2.9411 17.4555 3.28509 17.7995C3.62908 18.1434 4.09567 18.3366 4.58214 18.3365H13.7526C14.7656 18.3365 15.5867 17.5153 15.5867 16.5024Z" stroke="#A2A2A7" stroke-width="1.3" stroke-linecap="round" stroke-linejoin="round"/>
<path d="M2.74805 12.9067H15.5867" stroke="#A2A2A7" stroke-width="1.3" stroke-linecap="round" stroke-linejoin="round"/>
<path d="M5.68164 9.16632L6.79127 5.02126C6.91717 4.55149 7.22483 4.15113 7.64635 3.90854C8.06787 3.66595 8.56861 3.60107 9.03804 3.72822L17.8967 6.10338C18.3665 6.22928 18.7669 6.53694 19.0094 6.95846C19.252 7.37999 19.3169 7.88072 19.1898 8.35015L17.7683 13.6599C17.5154 14.6155 16.5483 15.1966 15.5858 14.9712" stroke="#A2A2A7" stroke-width="1.3" stroke-linecap="round" stroke-linejoin="round"/>
</g>
<defs>
<clipPath id="clip0_618_3675">
<rect width="22" height="22" fill="white"/>
</clipPath>
</defs>
</svg>
