<svg width="24" height="24" viewBox="0 0 24 24" fill="none" xmlns="http://www.w3.org/2000/svg">
<g clip-path="url(#clip0_577_20256)">
<path d="M12 24C18.6274 24 24 18.6274 24 12C24 5.37258 18.6274 0 12 0C5.37258 0 0 5.37258 0 12C0 18.6274 5.37258 24 12 24Z" fill="#C285F5"/>
<path d="M13.9924 8.16065L11.343 5.51122C10.9432 5.11144 10.2951 5.11144 9.89528 5.51122L7.24584 8.16065C6.84607 8.56043 6.84607 9.2086 7.24584 9.60837L9.89528 12.2578C10.2951 12.6576 10.9432 12.6576 11.343 12.2578L13.9924 9.60838C14.3922 9.2086 14.3922 8.56043 13.9924 8.16065Z" fill="white"/>
<path d="M18.1541 12.5999L16.4745 10.9203C16.2211 10.6669 15.8102 10.6669 15.5567 10.9203L13.8772 12.5999C13.6237 12.8534 13.6237 13.2643 13.8772 13.5177L15.5567 15.1973C15.8102 15.4507 16.2211 15.4507 16.4745 15.1973L18.1541 13.5177C18.4075 13.2643 18.4075 12.8534 18.1541 12.5999Z" fill="white"/>
<path d="M13.1813 16.8444L12.0127 15.6758C11.8363 15.4994 11.5504 15.4994 11.374 15.6758L10.2054 16.8444C10.029 17.0208 10.029 17.3067 10.2054 17.4831L11.374 18.6517C11.5504 18.8281 11.8363 18.8281 12.0127 18.6517L13.1813 17.4831C13.3577 17.3067 13.3577 17.0208 13.1813 16.8444Z" fill="white"/>
</g>
<defs>
<clipPath id="clip0_577_20256">
<rect width="24" height="24" fill="white"/>
</clipPath>
</defs>
</svg>
