<svg width="22" height="22" viewBox="0 0 22 22" fill="none" xmlns="http://www.w3.org/2000/svg">
<g clip-path="url(#clip0_618_3708)">
<path d="M12.6211 9.37971C13.5161 10.2747 13.5161 11.7257 12.6211 12.6206C11.7261 13.5156 10.2751 13.5156 9.3802 12.6206C8.48525 11.7257 8.48525 10.2747 9.3802 9.37971C10.2752 8.48476 11.7262 8.48476 12.6211 9.37971Z" stroke="#A2A2A7" stroke-width="1.3" stroke-linecap="round" stroke-linejoin="round"/>
<path d="M13.6112 3.77669L14.1457 3.95452C14.6352 4.11769 14.9661 4.57602 14.9661 5.0921V5.85935C14.9661 6.51202 15.4867 7.0446 16.1394 7.05835L16.9076 7.07485C17.3522 7.08402 17.7555 7.33977 17.9544 7.7376L18.2065 8.24177C18.4375 8.70377 18.3467 9.2611 17.9819 9.62594L17.4392 10.1686C16.9782 10.6297 16.9699 11.3749 17.4209 11.8461L17.9526 12.4016C18.2606 12.7234 18.3651 13.1881 18.2239 13.6107L18.0461 14.1451C17.8829 14.6346 17.4246 14.9655 16.9085 14.9655H16.1412C15.4886 14.9655 14.956 15.4862 14.9422 16.1389L14.9257 16.907C14.9166 17.3516 14.6608 17.7549 14.263 17.9539L13.7588 18.2059C13.2968 18.4369 12.7395 18.3462 12.3747 17.9814L11.832 17.4387C11.3709 16.9776 10.6257 16.9694 10.1545 17.4204L9.59898 17.952C9.27723 18.26 8.81248 18.3645 8.3899 18.2234L7.85548 18.0455C7.36598 17.8824 7.03507 17.424 7.03507 16.9079V16.1407C7.03507 15.488 6.5144 14.9554 5.86173 14.9417L5.09357 14.9252C4.64898 14.916 4.24565 14.6603 4.04673 14.2624L3.79465 13.7583C3.56365 13.2963 3.6544 12.7389 4.01923 12.3741L4.5619 11.8314C5.02298 11.3704 5.03123 10.6251 4.58023 10.1539L4.04857 9.59844C3.73965 9.27577 3.63515 8.8101 3.77632 8.38844L3.95415 7.85402C4.11732 7.36452 4.57565 7.0336 5.09173 7.0336H5.85898C6.51165 7.0336 7.04423 6.51294 7.05798 5.86027L7.07448 5.0921C7.08548 4.64752 7.34032 4.24419 7.73815 4.04527L8.24232 3.79319C8.70432 3.56219 9.26165 3.65294 9.62648 4.01777L10.1692 4.56044C10.6302 5.02152 11.3755 5.02977 11.8467 4.57877L12.4022 4.0471C12.7239 3.74002 13.1896 3.63552 13.6112 3.77669Z" stroke="#A2A2A7" stroke-width="1.3" stroke-linecap="round" stroke-linejoin="round"/>
</g>
<defs>
<clipPath id="clip0_618_3708">
<rect width="22" height="22" fill="white"/>
</clipPath>
</defs>
</svg>
