<svg width="53" height="23" viewBox="0 0 53 23" fill="none" xmlns="http://www.w3.org/2000/svg">
<g clip-path="url(#clip0_577_20339)">
<path d="M13.5425 4.30856L12.6066 5.35986C12.5625 5.4105 12.5089 5.4519 12.4487 5.48169C12.3885 5.51147 12.3231 5.52905 12.2561 5.5334C12.1891 5.53775 12.1219 5.52879 12.0584 5.50704C11.9948 5.48528 11.9363 5.45117 11.886 5.40666L9.71789 3.50683L8.73522 2.62399L7.83054 3.65657L6.27074 5.45345C6.18125 5.55499 6.05516 5.61692 5.9201 5.62569C5.78503 5.63446 5.652 5.58935 5.55012 5.50025L4.49882 4.56437C4.44819 4.52029 4.40678 4.46661 4.377 4.40644C4.34721 4.34627 4.32964 4.2808 4.32529 4.21381C4.32094 4.14681 4.3299 4.07962 4.35165 4.0161C4.3734 3.95259 4.40752 3.89401 4.45203 3.84375L7.3626 0.505791C7.70777 0.179496 8.16234 -0.00616422 8.63725 -0.0148199C9.11215 -0.0234756 9.57318 0.145497 9.93002 0.458997L13.4801 3.57858C13.5329 3.62191 13.5764 3.67536 13.6082 3.73579C13.64 3.79621 13.6594 3.86239 13.6652 3.93042C13.671 3.99845 13.6632 4.06695 13.6421 4.1319C13.621 4.19684 13.5871 4.25691 13.5425 4.30856Z" fill="#036CFF"/>
<path d="M18 10.4851V18.5118C18 18.9799 17.9077 19.4434 17.7285 19.8759C17.5493 20.3083 17.2866 20.7012 16.9554 21.032C16.6243 21.3629 16.2312 21.6252 15.7986 21.8041C15.366 21.9829 14.9024 22.0748 14.4343 22.0744H3.56257C2.61771 22.0744 1.71156 21.699 1.04345 21.0309C0.375341 20.3628 0 19.4567 0 18.5118L0 10.4851C0 9.77772 0.281012 9.09929 0.781218 8.59909C1.28142 8.09888 1.95985 7.81787 2.66724 7.81787H4.29567V10.1076H3.11958C2.87137 10.1076 2.63333 10.2062 2.45782 10.3818C2.28231 10.5573 2.18371 10.7953 2.18371 11.0435V18.8425C2.18371 19.0907 2.28231 19.3287 2.45782 19.5042C2.63333 19.6798 2.87137 19.7784 3.11958 19.7784H14.7151C14.9633 19.7784 15.2013 19.6798 15.3768 19.5042C15.5524 19.3287 15.651 19.0907 15.651 18.8425V11.0435C15.651 10.7953 15.5524 10.5573 15.3768 10.3818C15.2013 10.2062 14.9633 10.1076 14.7151 10.1076H13.8977V7.81787H15.3328C16.0402 7.81787 16.7186 8.09888 17.2188 8.59909C17.719 9.09929 18 9.77772 18 10.4851Z" fill="#036CFF"/>
<path d="M9.73066 3.50638V13.7636H7.81836V3.65612L8.72304 2.62354L9.73066 3.50638Z" fill="#036CFF"/>
</g>
<g clip-path="url(#clip1_577_20339)">
<path d="M52.9902 2.29985C52.9374 1.67179 52.6502 1.08657 52.1858 0.660478C51.7213 0.234389 51.1136 -0.00138413 50.4833 6.11332e-06H43.1041C42.4942 6.11332e-06 41.9092 0.24231 41.4779 0.673615C41.0466 1.10492 40.8043 1.68989 40.8043 2.29985V3.43335H36.4346C36.1145 3.43291 35.7974 3.4957 35.5016 3.6181C35.2058 3.7405 34.9371 3.9201 34.7109 4.1466C34.4847 4.37311 34.3055 4.64205 34.1835 4.938C34.0615 5.23395 33.9991 5.55107 34 5.87118V12.7937C34 13.1133 34.063 13.4297 34.1854 13.7249C34.3078 14.0201 34.4872 14.2882 34.7133 14.514C34.9394 14.7398 35.2078 14.9189 35.5031 15.0409C35.7985 15.1628 36.115 15.2254 36.4346 15.225H43.8171C44.4619 15.225 45.0803 14.9688 45.5362 14.5129C45.9922 14.0569 46.2483 13.4385 46.2483 12.7937V11.3514H50.4833V22.1935H53V2.51669C53 2.44441 52.9967 2.37542 52.9902 2.29985ZM50.4833 8.87084H46.2483C45.5968 8.87257 44.9726 9.13261 44.5125 9.59391C44.0524 10.0552 43.7941 10.6802 43.7941 11.3317V11.8573C43.7945 11.9996 43.7669 12.1405 43.7127 12.272C43.6586 12.4035 43.579 12.5231 43.4786 12.6238C43.3782 12.7245 43.2589 12.8044 43.1275 12.859C42.9962 12.9135 42.8554 12.9416 42.7131 12.9416H37.6436C37.3561 12.9416 37.0803 12.8273 36.877 12.624C36.6736 12.4207 36.5594 12.1449 36.5594 11.8573V6.72541C36.5594 6.43786 36.6736 6.16208 36.877 5.95875C37.0803 5.75542 37.3561 5.6412 37.6436 5.6412H41.0178C41.6065 5.64218 42.1721 5.41212 42.593 5.00048C43.0138 4.58884 43.2563 4.02849 43.2684 3.43992C43.27 3.42243 43.27 3.40483 43.2684 3.38735V2.29985H50.4965L50.4833 8.87084Z" fill="#036CFF"/>
</g>
<defs>
<clipPath id="clip0_577_20339">
<rect width="18" height="22.0742" fill="white"/>
</clipPath>
<clipPath id="clip1_577_20339">
<rect width="19" height="22.1869" fill="white" transform="translate(34)"/>
</clipPath>
</defs>
</svg>
