<svg width="37" height="29" viewBox="0 0 37 29" fill="none" xmlns="http://www.w3.org/2000/svg">
<path d="M1.85 0C1.4841 0 1.12643 0.139611 0.822196 0.401178C0.517965 0.662745 0.280846 1.03452 0.140824 1.46949C0.00080157 1.90446 -0.0358346 2.38309 0.035548 2.84485C0.106931 3.30661 0.283126 3.73077 0.541853 4.06368C0.80058 4.39659 1.13022 4.62331 1.48908 4.71516C1.84795 4.80701 2.21992 4.75987 2.55796 4.5797C2.89601 4.39953 3.18494 4.09442 3.38822 3.70296C3.5915 3.31149 3.7 2.85126 3.7 2.38045C3.7 1.74911 3.50509 1.14364 3.15815 0.697218C2.8112 0.250797 2.34065 0 1.85 0ZM9.25 4.7609H35.15C35.6406 4.7609 36.1112 4.5101 36.4581 4.06368C36.8051 3.61726 37 3.01178 37 2.38045C37 1.74911 36.8051 1.14364 36.4581 0.697218C36.1112 0.250797 35.6406 0 35.15 0H9.25C8.75935 0 8.28879 0.250797 7.94185 0.697218C7.59491 1.14364 7.4 1.74911 7.4 2.38045C7.4 3.01178 7.59491 3.61726 7.94185 4.06368C8.28879 4.5101 8.75935 4.7609 9.25 4.7609ZM9.25 11.9022C8.8841 11.9022 8.52642 12.0419 8.22219 12.3034C7.91796 12.565 7.68084 12.9368 7.54082 13.3717C7.4008 13.8067 7.36416 14.2853 7.43554 14.7471C7.50693 15.2089 7.68312 15.633 7.94185 15.9659C8.20058 16.2988 8.53021 16.5256 8.88908 16.6174C9.24794 16.7093 9.61992 16.6621 9.95796 16.4819C10.296 16.3018 10.5849 15.9967 10.7882 15.6052C10.9915 15.2137 11.1 14.7535 11.1 14.2827C11.1 13.6514 10.9051 13.0459 10.5581 12.5995C10.2112 12.153 9.74065 11.9022 9.25 11.9022ZM16.65 23.8045C16.2841 23.8045 15.9264 23.9441 15.6222 24.2057C15.318 24.4672 15.0808 24.839 14.9408 25.274C14.8008 25.709 14.7642 26.1876 14.8355 26.6493C14.9069 27.1111 15.0831 27.5353 15.3418 27.8682C15.6006 28.2011 15.9302 28.4278 16.2891 28.5196C16.6479 28.6115 17.0199 28.5644 17.358 28.3842C17.696 28.204 17.9849 27.8989 18.1882 27.5074C18.3915 27.116 18.5 26.6557 18.5 26.1849C18.5 25.5536 18.3051 24.9481 17.9581 24.5017C17.6112 24.0553 17.1406 23.8045 16.65 23.8045ZM35.15 11.9022H16.65C16.1593 11.9022 15.6888 12.153 15.3418 12.5995C14.9949 13.0459 14.8 13.6514 14.8 14.2827C14.8 14.914 14.9949 15.5195 15.3418 15.9659C15.6888 16.4123 16.1593 16.6631 16.65 16.6631H35.15C35.6406 16.6631 36.1112 16.4123 36.4581 15.9659C36.8051 15.5195 37 14.914 37 14.2827C37 13.6514 36.8051 13.0459 36.4581 12.5995C36.1112 12.153 35.6406 11.9022 35.15 11.9022ZM35.15 23.8045H24.05C23.5593 23.8045 23.0888 24.0553 22.7418 24.5017C22.3949 24.9481 22.2 25.5536 22.2 26.1849C22.2 26.8163 22.3949 27.4218 22.7418 27.8682C23.0888 28.3146 23.5593 28.5654 24.05 28.5654H35.15C35.6406 28.5654 36.1112 28.3146 36.4581 27.8682C36.8051 27.4218 37 26.8163 37 26.1849C37 25.5536 36.8051 24.9481 36.4581 24.5017C36.1112 24.0553 35.6406 23.8045 35.15 23.8045Z" fill="black"/>
</svg>
