<svg width="22" height="22" viewBox="0 0 22 22" fill="none" xmlns="http://www.w3.org/2000/svg">
<g clip-path="url(#clip0_618_3696)">
<path d="M8.42233 15.5835L10.175 17.921C10.5875 18.471 11.4125 18.471 11.825 17.921L13.5777 15.5835H16.5C18.0189 15.5835 19.25 14.3524 19.25 12.8335V7.3335C19.25 5.81458 18.0189 4.5835 16.5 4.5835H5.5C3.98108 4.5835 2.75 5.81458 2.75 7.3335V12.8335C2.75 14.3524 3.98108 15.5835 5.5 15.5835H8.42233Z" stroke="#A2A2A7" stroke-width="1.3" stroke-linecap="round" stroke-linejoin="round"/>
<path d="M11.1614 10.3795C11.2512 10.4694 11.2512 10.6142 11.1614 10.704C11.0716 10.7939 10.9267 10.7939 10.8369 10.704C10.7471 10.6142 10.7471 10.4694 10.8369 10.3795C10.9267 10.2897 11.0716 10.2906 11.1614 10.3795Z" stroke="#A2A2A7" stroke-width="1.3" stroke-linecap="round" stroke-linejoin="round"/>
<path d="M14.8294 10.3795C14.9192 10.4694 14.9192 10.6142 14.8294 10.704C14.7395 10.7939 14.5947 10.7939 14.5049 10.704C14.415 10.6142 14.415 10.4694 14.5049 10.3795C14.5947 10.2897 14.7395 10.2906 14.8294 10.3795Z" stroke="#A2A2A7" stroke-width="1.3" stroke-linecap="round" stroke-linejoin="round"/>
<path d="M7.49539 10.3795C7.58522 10.4694 7.58522 10.6142 7.49539 10.704C7.40556 10.7939 7.26072 10.7939 7.17089 10.704C7.08106 10.6142 7.08106 10.4694 7.17089 10.3795C7.26072 10.2897 7.40556 10.2906 7.49539 10.3795Z" stroke="#A2A2A7" stroke-width="1.3" stroke-linecap="round" stroke-linejoin="round"/>
</g>
<defs>
<clipPath id="clip0_618_3696">
<rect width="22" height="22" fill="white"/>
</clipPath>
</defs>
</svg>
