<svg width="43" height="28" viewBox="0 0 43 28" fill="none" xmlns="http://www.w3.org/2000/svg">
<path d="M30.191 2.79256L3.25355 17.1819C2.91407 16.2619 2.74322 15.3216 2.74414 14.3783C2.74414 7.49108 11.7106 1.90919 22.7741 1.90919C25.3164 1.90729 27.8351 2.20728 30.191 2.79256Z" fill="#F8DE4A"/>
<path d="M17.2812 27.1652L40.6954 12.1181C41.1153 12.9689 41.3807 13.848 41.4868 14.739C42.2676 21.2451 34.5637 27.0021 24.2773 27.5993C21.9137 27.7384 19.5379 27.5909 17.2812 27.1652Z" fill="#F8DE4A"/>
<path d="M42.6382 11.4332C42.5343 11.0558 42.4043 10.6845 42.2484 10.3191C39.769 4.38434 31.4372 0.0109609 21.5351 0H21.3168C14.3885 0.0597865 8.23048 2.25893 4.2291 5.66078C1.47004 8.08325 -0.0110982 11.0039 6.26145e-05 14C6.26145e-05 21.7324 9.62612 28 21.4993 28C33.3724 28 43 21.7324 43 14C43.0004 13.1392 42.8793 12.2801 42.6382 11.4332ZM3.12038 17.1737C2.79927 16.2656 2.63766 15.3375 2.63854 14.4065C2.63854 7.60883 11.12 2.0995 21.585 2.0995C23.9903 2.0975 26.3734 2.39359 28.6022 2.97139L3.12038 17.1737ZM16.2769 17.5264C16.2012 17.4941 16.1307 17.457 16.0664 17.4158L12.4798 15.124C11.9905 14.8113 11.7157 14.3873 11.7157 13.9452C11.7157 13.7263 11.7832 13.5095 11.9143 13.3072C12.0454 13.105 12.2375 12.9212 12.4798 12.7664C12.722 12.6116 13.0096 12.4888 13.3262 12.405C13.6427 12.3213 13.9819 12.2781 14.3245 12.2781C15.0165 12.2781 15.68 12.4538 16.1693 12.7664L19.5999 14.9586L27.0584 10.1926C27.2957 10.0389 27.5782 9.91663 27.8897 9.83295C28.2012 9.74927 28.5356 9.70579 28.8735 9.70501C29.2114 9.70424 29.5462 9.74618 29.8586 9.82843C30.1711 9.91069 30.4549 10.0316 30.6939 10.1843C30.9329 10.3369 31.1223 10.5183 31.2511 10.7179C31.38 10.9175 31.4458 11.1314 31.4447 11.3473C31.4436 11.5632 31.3757 11.7769 31.2449 11.976C31.1141 12.1751 30.9229 12.3556 30.6824 12.5073L21.5242 18.3594C21.0011 18.6934 20.2919 18.881 19.5524 18.881C18.8129 18.881 18.1036 18.6934 17.5805 18.3594L16.2769 17.5264ZM21.5788 26.7136C20.2915 26.7141 19.0075 26.6296 17.7474 26.4615L40.5065 13.7788C40.5242 13.9874 40.5325 14.1966 40.5315 14.4065C40.5315 21.2033 32.0485 26.7136 21.585 26.7136H21.5788Z" fill="#F7CA45"/>
</svg>
