<svg width="187" height="168" viewBox="0 0 187 168" fill="none" xmlns="http://www.w3.org/2000/svg">
<mask id="mask0_735_1566" style="mask-type:luminance" maskUnits="userSpaceOnUse" x="0" y="0" width="91" height="116">
<path d="M0 0H90.8099V115.276H0V0Z" fill="white"/>
</mask>
<g mask="url(#mask0_735_1566)">
<path fill-rule="evenodd" clip-rule="evenodd" d="M36.6924 58.4515C66.1138 41.2682 80.8245 32.6765 80.8245 32.6765C91.4976 26.4271 93.1877 15.6236 86.0306 0.130394C68.1952 10.4175 32.6547 28.1172 18.3353 40.2249C-5.87998 60.9242 -5.22791 85.6611 20.2863 114.691C8.31428 92.5574 13.7812 73.8143 36.6924 58.582V58.4515Z" fill="white"/>
</g>
<mask id="mask1_735_1566" style="mask-type:luminance" maskUnits="userSpaceOnUse" x="25" y="43" width="66" height="103">
<path d="M25.374 43.1618H90.8105V145.229H25.374V43.1618Z" fill="white"/>
</mask>
<g mask="url(#mask1_735_1566)">
<path fill-rule="evenodd" clip-rule="evenodd" d="M86.292 43.6104C93.0579 59.3644 89.5472 71.2113 75.6138 79.1509C53.7459 91.9054 46.3228 96.2038 53.7459 91.9054C43.0728 99.0677 40.209 108.311 45.2847 119.767C45.1543 111.958 49.3171 104.665 57.5227 98.0244C62.0768 107.007 63.5061 110.002 62.0768 107.007C70.4076 121.457 64.419 134.217 44.3718 145.151C29.009 111.175 23.9333 99.7198 29.009 111.175C22.89 97.3775 24.9766 85.4003 35.128 75.1132C45.1543 65.0922 73.0107 51.4196 86.292 43.6104Z" fill="#F87225"/>
</g>
<path d="M96.4425 104.847V111.524H104.893V114.884H96.4425V124.065H92.2275V101.509H106.458V104.847H96.4425Z" fill="white"/>
<path d="M123.952 114.216C123.952 113.715 123.879 113.251 123.743 112.818C123.602 112.375 123.394 111.984 123.117 111.65C122.836 111.316 122.481 111.055 122.053 110.857C121.62 110.664 121.119 110.565 120.551 110.565C119.434 110.565 118.558 110.888 117.922 111.524C117.28 112.166 116.868 113.063 116.691 114.216H123.952ZM116.607 116.553C116.675 117.377 116.821 118.087 117.045 118.682C117.28 119.282 117.577 119.777 117.943 120.163C118.318 120.554 118.762 120.846 119.278 121.039C119.789 121.222 120.363 121.311 120.989 121.311C121.615 121.311 122.147 121.243 122.596 121.102C123.055 120.966 123.451 120.805 123.785 120.622C124.129 120.445 124.432 120.283 124.682 120.142C124.933 119.991 125.183 119.913 125.434 119.913C125.752 119.913 125.986 120.033 126.143 120.267L127.249 121.686C126.816 122.187 126.336 122.604 125.809 122.938C125.277 123.272 124.724 123.543 124.14 123.752C123.566 123.95 122.982 124.086 122.387 124.169C121.787 124.253 121.208 124.295 120.655 124.295C119.539 124.295 118.506 124.112 117.546 123.752C116.586 123.377 115.752 122.829 115.042 122.104C114.343 121.384 113.79 120.492 113.373 119.433C112.966 118.363 112.768 117.127 112.768 115.719C112.768 114.634 112.94 113.611 113.289 112.651C113.649 111.681 114.155 110.836 114.813 110.126C115.48 109.417 116.284 108.854 117.233 108.436C118.193 108.019 119.268 107.81 120.467 107.81C121.469 107.81 122.392 107.972 123.243 108.29C124.103 108.614 124.839 109.083 125.454 109.709C126.065 110.325 126.545 111.081 126.894 111.984C127.238 112.891 127.416 113.919 127.416 115.072C127.416 115.656 127.353 116.052 127.228 116.261C127.103 116.459 126.863 116.553 126.519 116.553H116.607Z" fill="white"/>
<path d="M144.725 112.15C144.276 111.624 143.796 111.248 143.285 111.024C142.769 110.805 142.221 110.69 141.637 110.69C141.053 110.69 140.52 110.805 140.051 111.024C139.576 111.248 139.175 111.582 138.841 112.025C138.517 112.458 138.267 113.016 138.09 113.694C137.907 114.378 137.818 115.186 137.818 116.115C137.818 117.049 137.891 117.842 138.048 118.494C138.199 119.135 138.413 119.662 138.695 120.08C138.971 120.497 139.31 120.799 139.717 120.977C140.134 121.159 140.583 121.248 141.073 121.248C141.877 121.248 142.56 121.081 143.118 120.747C143.687 120.413 144.224 119.944 144.725 119.328V112.15ZM148.564 100.883V124.065H146.206C145.706 124.065 145.382 123.83 145.247 123.356L144.913 121.811C144.271 122.552 143.536 123.147 142.701 123.606C141.866 124.065 140.891 124.295 139.78 124.295C138.903 124.295 138.095 124.112 137.359 123.752C136.634 123.392 136.008 122.865 135.481 122.166C134.965 121.472 134.563 120.617 134.271 119.6C133.989 118.588 133.854 117.424 133.854 116.115C133.854 114.936 134.01 113.835 134.334 112.818C134.652 111.79 135.111 110.898 135.711 110.147C136.321 109.396 137.046 108.812 137.881 108.394C138.726 107.977 139.675 107.768 140.719 107.768C141.621 107.768 142.388 107.909 143.014 108.186C143.65 108.467 144.224 108.848 144.725 109.333V100.883H148.564Z" fill="white"/>
<path d="M165.188 117.242C164.072 117.283 163.133 117.383 162.371 117.534C161.62 117.675 161.015 117.857 160.556 118.076C160.097 118.285 159.768 118.535 159.575 118.828C159.377 119.12 159.283 119.433 159.283 119.767C159.283 120.45 159.481 120.935 159.888 121.227C160.29 121.519 160.812 121.665 161.453 121.665C162.246 121.665 162.924 121.53 163.498 121.248C164.082 120.956 164.646 120.518 165.188 119.933V117.242ZM156.362 110.293C158.208 108.614 160.431 107.768 163.018 107.768C163.947 107.768 164.781 107.925 165.522 108.228C166.258 108.535 166.878 108.958 167.379 109.5C167.89 110.043 168.282 110.7 168.548 111.462C168.809 112.229 168.944 113.063 168.944 113.966V124.065H167.212C166.847 124.065 166.565 124.013 166.357 123.898C166.159 123.789 166.007 123.564 165.898 123.23L165.564 122.083C165.147 122.448 164.74 122.766 164.354 123.043C163.978 123.324 163.582 123.559 163.164 123.752C162.747 123.935 162.298 124.07 161.829 124.169C161.354 124.263 160.832 124.315 160.264 124.315C159.596 124.315 158.97 124.222 158.386 124.044C157.812 123.867 157.322 123.596 156.904 123.23C156.497 122.855 156.179 122.406 155.945 121.874C155.72 121.332 155.611 120.7 155.611 119.975C155.611 119.574 155.673 119.172 155.798 118.765C155.934 118.363 156.158 117.982 156.466 117.617C156.769 117.257 157.165 116.918 157.656 116.595C158.141 116.277 158.741 116 159.45 115.76C160.17 115.51 161.005 115.317 161.954 115.176C162.898 115.025 163.978 114.926 165.188 114.884V113.966C165.188 112.896 164.959 112.103 164.5 111.587C164.051 111.076 163.399 110.815 162.538 110.815C161.912 110.815 161.391 110.893 160.973 111.044C160.566 111.185 160.206 111.347 159.888 111.524C159.58 111.707 159.294 111.874 159.033 112.025C158.782 112.166 158.501 112.234 158.198 112.234C157.916 112.234 157.682 112.166 157.489 112.025C157.306 111.874 157.16 111.707 157.05 111.524L156.362 110.293Z" fill="white"/>
<path d="M98.0394 158.62L95.3059 151.108C95.1651 150.774 95.019 150.388 94.8677 149.939C94.7269 149.48 94.586 148.979 94.4504 148.437C94.3095 148.979 94.1635 149.48 94.0122 149.939C93.8714 150.398 93.7305 150.805 93.5949 151.149L90.8823 158.62H98.0394ZM105.447 167.133H102.213C101.847 167.133 101.55 167.044 101.315 166.862C101.091 166.684 100.924 166.455 100.815 166.173L99.1244 161.583H89.7764L88.1071 166.173C88.0236 166.423 87.8567 166.648 87.6063 166.841C87.3663 167.039 87.0742 167.133 86.7299 167.133H83.4539L92.322 144.577H96.5996L105.447 167.133Z" fill="white"/>
<path d="M112.676 167.133V154.029L111.278 153.82C110.986 153.753 110.746 153.643 110.568 153.486C110.386 153.335 110.297 153.121 110.297 152.84V151.275H112.676V150.085C112.676 149.167 112.811 148.348 113.093 147.623C113.37 146.903 113.766 146.282 114.282 145.766C114.794 145.255 115.42 144.864 116.16 144.597C116.896 144.321 117.725 144.18 118.643 144.18C119.379 144.18 120.068 144.284 120.709 144.493L120.626 146.413C120.61 146.569 120.568 146.684 120.501 146.768C120.428 146.851 120.334 146.924 120.208 146.976C120.094 147.018 119.958 147.049 119.791 147.06C119.635 147.075 119.478 147.081 119.311 147.081C118.852 147.081 118.44 147.138 118.08 147.247C117.715 147.347 117.412 147.519 117.162 147.769C116.912 148.009 116.724 148.327 116.599 148.729C116.473 149.12 116.411 149.616 116.411 150.21V151.275H120.563V154.008H116.536V167.133H112.676Z" fill="white"/>
<path d="M130.73 153.904C131.23 152.944 131.82 152.193 132.503 151.65C133.197 151.108 134.011 150.836 134.945 150.836C135.68 150.836 136.27 150.998 136.718 151.316L136.468 154.196C136.426 154.394 136.353 154.53 136.259 154.613C136.16 154.686 136.03 154.718 135.863 154.718C135.696 154.718 135.456 154.697 135.153 154.655C134.845 154.603 134.548 154.571 134.256 154.571C133.839 154.571 133.463 154.634 133.129 154.759C132.795 154.874 132.493 155.046 132.232 155.281C131.966 155.521 131.731 155.803 131.523 156.136C131.324 156.47 131.137 156.856 130.959 157.284V167.133H127.099V151.129H129.373C129.759 151.129 130.031 151.202 130.187 151.337C130.338 151.478 130.443 151.728 130.5 152.088L130.73 153.904Z" fill="white"/>
<path d="M147.108 151.129V167.133H143.227V151.129H147.108ZM147.63 146.475C147.63 146.799 147.557 147.101 147.421 147.394C147.296 147.686 147.114 147.947 146.879 148.166C146.654 148.39 146.388 148.562 146.086 148.687C145.794 148.812 145.47 148.875 145.126 148.875C144.792 148.875 144.479 148.812 144.187 148.687C143.895 148.562 143.634 148.39 143.415 148.166C143.191 147.947 143.019 147.686 142.893 147.394C142.768 147.101 142.706 146.799 142.706 146.475C142.706 146.131 142.768 145.808 142.893 145.516C143.019 145.213 143.191 144.947 143.415 144.723C143.634 144.504 143.895 144.326 144.187 144.201C144.479 144.065 144.792 143.992 145.126 143.992C145.47 143.992 145.794 144.065 146.086 144.201C146.388 144.326 146.654 144.504 146.879 144.723C147.114 144.947 147.296 145.213 147.421 145.516C147.557 145.808 147.63 146.131 147.63 146.475Z" fill="white"/>
<path d="M183.244 160.31C182.128 160.351 181.189 160.451 180.427 160.602C179.676 160.743 179.071 160.925 178.612 161.144C178.153 161.353 177.824 161.603 177.631 161.896C177.433 162.188 177.339 162.501 177.339 162.834C177.339 163.518 177.537 164.003 177.944 164.295C178.346 164.587 178.867 164.733 179.509 164.733C180.302 164.733 180.98 164.598 181.554 164.316C182.138 164.024 182.702 163.586 183.244 163.001V160.31ZM174.418 153.361C176.264 151.681 178.487 150.836 181.074 150.836C182.003 150.836 182.837 150.993 183.578 151.295C184.313 151.603 184.934 152.026 185.435 152.568C185.946 153.111 186.337 153.768 186.604 154.53C186.864 155.297 187 156.131 187 157.034V167.133H185.268C184.903 167.133 184.621 167.081 184.413 166.966C184.214 166.856 184.063 166.632 183.954 166.298L183.62 165.151C183.202 165.516 182.795 165.834 182.409 166.11C182.034 166.392 181.637 166.627 181.22 166.82C180.803 167.003 180.354 167.138 179.885 167.237C179.41 167.331 178.888 167.383 178.32 167.383C177.652 167.383 177.026 167.289 176.442 167.112C175.868 166.935 175.378 166.663 174.96 166.298C174.553 165.923 174.235 165.474 174 164.942C173.776 164.399 173.666 163.768 173.666 163.043C173.666 162.641 173.729 162.24 173.854 161.833C173.99 161.431 174.214 161.05 174.522 160.685C174.825 160.325 175.221 159.986 175.711 159.663C176.197 159.345 176.796 159.068 177.506 158.828C178.226 158.578 179.06 158.385 180.01 158.244C180.954 158.093 182.034 157.994 183.244 157.952V157.034C183.244 155.964 183.015 155.171 182.555 154.655C182.107 154.144 181.455 153.883 180.594 153.883C179.968 153.883 179.446 153.961 179.029 154.112C178.622 154.253 178.262 154.415 177.944 154.592C177.636 154.775 177.349 154.942 177.089 155.093C176.838 155.234 176.556 155.302 176.254 155.302C175.972 155.302 175.737 155.234 175.544 155.093C175.362 154.942 175.216 154.775 175.106 154.592L174.418 153.361Z" fill="white"/>
<path d="M169.58 154.869C169.455 155.026 169.335 155.141 169.225 155.224C169.126 155.307 168.975 155.349 168.766 155.349C168.568 155.349 168.375 155.297 168.182 155.182C167.999 155.057 167.775 154.921 167.514 154.765C167.248 154.614 166.935 154.483 166.575 154.368C166.226 154.243 165.788 154.181 165.261 154.181C164.577 154.181 163.977 154.306 163.466 154.556C162.965 154.796 162.538 155.141 162.193 155.6C161.859 156.059 161.609 156.617 161.442 157.269C161.275 157.911 161.192 158.641 161.192 159.46C161.192 160.31 161.28 161.067 161.463 161.734C161.64 162.402 161.906 162.965 162.256 163.424C162.6 163.873 163.018 164.212 163.508 164.447C163.993 164.687 164.541 164.802 165.156 164.802C165.767 164.802 166.262 164.729 166.638 164.572C167.024 164.421 167.347 164.254 167.598 164.071C167.858 163.894 168.088 163.727 168.286 163.57C168.479 163.419 168.693 163.341 168.933 163.341C169.236 163.341 169.476 163.461 169.643 163.696L170.748 165.115C170.315 165.615 169.851 166.033 169.35 166.367C168.85 166.7 168.328 166.972 167.785 167.18C167.253 167.379 166.706 167.514 166.137 167.598C165.579 167.681 165.015 167.723 164.447 167.723C163.456 167.723 162.527 167.54 161.651 167.18C160.785 166.805 160.028 166.262 159.376 165.553C158.719 164.843 158.197 163.983 157.811 162.965C157.436 161.938 157.248 160.769 157.248 159.46C157.248 158.291 157.415 157.206 157.749 156.205C158.093 155.193 158.594 154.322 159.251 153.596C159.903 152.861 160.712 152.282 161.672 151.865C162.642 151.447 163.758 151.239 165.01 151.239C166.205 151.239 167.253 151.437 168.161 151.823C169.064 152.198 169.872 152.751 170.582 153.471L169.58 154.869Z" fill="white"/>
</svg>
