<svg width="22" height="22" viewBox="0 0 22 22" fill="none" xmlns="http://www.w3.org/2000/svg">
<g clip-path="url(#clip0_618_3660)">
<path d="M9.16667 13.75H6.41667C4.39162 13.75 2.75 15.3916 2.75 17.4167V18.3333" stroke="#1E1E2D" stroke-width="1.3" stroke-linecap="round" stroke-linejoin="round"/>
<path d="M18.332 19.25H12.832" stroke="#1E1E2D" stroke-width="1.3" stroke-linecap="round" stroke-linejoin="round"/>
<path d="M13.1005 14.0565L15.8886 11.2685C16.0605 11.0966 16.2936 11 16.5368 11C16.7799 11 17.013 11.0966 17.1849 11.2685L18.0636 12.1471C18.4215 12.5051 18.4215 13.0855 18.0636 13.4435L15.2755 16.2315C15.1036 16.4034 14.8704 16.5 14.6273 16.5H13.2904C13.0372 16.5 12.832 16.2948 12.832 16.0417V14.7047C12.832 14.4616 12.9286 14.2285 13.1005 14.0565Z" stroke="#1E1E2D" stroke-width="1.3" stroke-linecap="round" stroke-linejoin="round"/>
<circle cx="10.0846" cy="6.41667" r="3.66667" stroke="#1E1E2D" stroke-width="1.3" stroke-linecap="round" stroke-linejoin="round"/>
</g>
<defs>
<clipPath id="clip0_618_3660">
<rect width="22" height="22" fill="white"/>
</clipPath>
</defs>
</svg>
