<svg width="28" height="22" viewBox="0 0 28 22" fill="none" xmlns="http://www.w3.org/2000/svg">
<path d="M19.6595 2.19408L2.11882 13.5C1.89776 12.7771 1.78651 12.0383 1.78711 11.2972C1.78711 5.88578 7.62576 1.50001 14.8299 1.50001C16.4853 1.49852 18.1254 1.73422 19.6595 2.19408Z" fill="#F8DE4A"/>
<path d="M11.2533 21.3442L26.4997 9.52146C26.7732 10.1899 26.946 10.8806 27.0151 11.5807C27.5235 16.6927 22.507 21.216 15.8089 21.6853C14.2698 21.7945 12.7227 21.6787 11.2533 21.3442Z" fill="#F8DE4A"/>
<path d="M27.7644 8.9832C27.6967 8.68674 27.6121 8.39497 27.5106 8.1079C25.8961 3.44484 20.4707 0.0086121 14.0229 0H13.8807C9.36924 0.0469751 5.35938 1.77488 2.75384 4.44776C0.957236 6.35113 -0.00722674 8.64592 4.07723e-05 11C4.07723e-05 17.0754 6.26817 22 13.9995 22C21.7309 22 28 17.0754 28 11C28.0003 10.3236 27.9214 9.64864 27.7644 8.9832ZM2.03188 13.4936C1.82278 12.7801 1.71754 12.0509 1.71812 11.3194C1.71812 5.97836 7.24094 1.64961 14.0554 1.64961C15.6216 1.64803 17.1734 1.88068 18.6247 2.33466L2.03188 13.4936ZM10.5989 13.7707C10.5496 13.7453 10.5037 13.7162 10.4618 13.6838L8.12638 11.8831C7.80779 11.6375 7.62881 11.3043 7.62881 10.9569C7.62881 10.7849 7.67275 10.6146 7.75812 10.4557C7.8435 10.2968 7.96863 10.1524 8.12638 10.0307C8.28412 9.90912 8.4714 9.81264 8.67751 9.74681C8.88361 9.68099 9.10452 9.64711 9.32761 9.64711C9.77816 9.64711 10.2103 9.78511 10.5288 10.0307L12.7627 11.7532L17.6195 8.00847C17.774 7.88767 17.9579 7.79164 18.1608 7.72589C18.3636 7.66014 18.5813 7.62598 18.8013 7.62537C19.0214 7.62476 19.2394 7.65772 19.4428 7.72234C19.6463 7.78697 19.8311 7.88198 19.9867 8.00192C20.1424 8.12186 20.2657 8.26435 20.3496 8.42118C20.4335 8.57802 20.4763 8.7461 20.4756 8.91575C20.4749 9.08541 20.4307 9.25328 20.3455 9.4097C20.2603 9.56612 20.1359 9.70801 19.9793 9.82719L14.0158 14.4253C13.6751 14.6877 13.2133 14.8351 12.7318 14.8351C12.2502 14.8351 11.7884 14.6877 11.4478 14.4253L10.5989 13.7707ZM14.0513 20.9893C13.2131 20.9896 12.377 20.9232 11.5564 20.7912L26.3764 10.8262C26.3879 10.9901 26.3933 11.1545 26.3926 11.3194C26.3926 16.6597 20.8688 20.9893 14.0554 20.9893H14.0513Z" fill="#F7CA45"/>
</svg>
