<svg width="44" height="44" viewBox="0 0 44 44" fill="none" xmlns="http://www.w3.org/2000/svg">
<path d="M6.41732 11C6.05472 11 5.70026 11.1075 5.39877 11.309C5.09728 11.5104 4.8623 11.7967 4.72354 12.1317C4.58478 12.4667 4.54847 12.8354 4.61921 13.191C4.68995 13.5466 4.86456 13.8733 5.12096 14.1297C5.37735 14.3861 5.70402 14.5607 6.05965 14.6314C6.41528 14.7022 6.78391 14.6659 7.11891 14.5271C7.4539 14.3884 7.74023 14.1534 7.94168 13.8519C8.14313 13.5504 8.25065 13.1959 8.25065 12.8333C8.25065 12.3471 8.0575 11.8808 7.71368 11.537C7.36986 11.1932 6.90355 11 6.41732 11ZM13.7507 14.6667H39.4173C39.9035 14.6667 40.3699 14.4735 40.7137 14.1297C41.0575 13.7859 41.2507 13.3196 41.2507 12.8333C41.2507 12.3471 41.0575 11.8808 40.7137 11.537C40.3699 11.1932 39.9035 11 39.4173 11H13.7507C13.2644 11 12.7981 11.1932 12.4543 11.537C12.1105 11.8808 11.9173 12.3471 11.9173 12.8333C11.9173 13.3196 12.1105 13.7859 12.4543 14.1297C12.7981 14.4735 13.2644 14.6667 13.7507 14.6667ZM13.7507 20.1667C13.3881 20.1667 13.0336 20.2742 12.7321 20.4756C12.4306 20.6771 12.1956 20.9634 12.0569 21.2984C11.9181 21.6334 11.8818 22.002 11.9525 22.3577C12.0233 22.7133 12.1979 23.04 12.4543 23.2964C12.7107 23.5528 13.0374 23.7274 13.393 23.7981C13.7486 23.8688 14.1172 23.8325 14.4522 23.6938C14.7872 23.555 15.0736 23.32 15.275 23.0185C15.4765 22.7171 15.584 22.3626 15.584 22C15.584 21.5138 15.3908 21.0475 15.047 20.7036C14.7032 20.3598 14.2369 20.1667 13.7507 20.1667ZM21.084 29.3333C20.7214 29.3333 20.3669 29.4409 20.0654 29.6423C19.764 29.8438 19.529 30.1301 19.3902 30.4651C19.2514 30.8001 19.2151 31.1687 19.2859 31.5243C19.3566 31.88 19.5312 32.2066 19.7876 32.463C20.044 32.7194 20.3707 32.894 20.7263 32.9648C21.082 33.0355 21.4506 32.9992 21.7856 32.8604C22.1206 32.7217 22.4069 32.4867 22.6083 32.1852C22.8098 31.8837 22.9173 31.5293 22.9173 31.1667C22.9173 30.6804 22.7242 30.2141 22.3803 29.8703C22.0365 29.5265 21.5702 29.3333 21.084 29.3333ZM39.4173 20.1667H21.084C20.5978 20.1667 20.1314 20.3598 19.7876 20.7036C19.4438 21.0475 19.2507 21.5138 19.2507 22C19.2507 22.4862 19.4438 22.9525 19.7876 23.2964C20.1314 23.6402 20.5978 23.8333 21.084 23.8333H39.4173C39.9035 23.8333 40.3699 23.6402 40.7137 23.2964C41.0575 22.9525 41.2507 22.4862 41.2507 22C41.2507 21.5138 41.0575 21.0475 40.7137 20.7036C40.3699 20.3598 39.9035 20.1667 39.4173 20.1667ZM39.4173 29.3333H28.4173C27.9311 29.3333 27.4648 29.5265 27.121 29.8703C26.7771 30.2141 26.584 30.6804 26.584 31.1667C26.584 31.6529 26.7771 32.1192 27.121 32.463C27.4648 32.8068 27.9311 33 28.4173 33H39.4173C39.9035 33 40.3699 32.8068 40.7137 32.463C41.0575 32.1192 41.2507 31.6529 41.2507 31.1667C41.2507 30.6804 41.0575 30.2141 40.7137 29.8703C40.3699 29.5265 39.9035 29.3333 39.4173 29.3333Z" fill="black"/>
</svg>
