<svg width="22" height="22" viewBox="0 0 22 22" fill="none" xmlns="http://www.w3.org/2000/svg">
<g clip-path="url(#clip0_557_3831)">
<path d="M9.33702 12.6684C8.41631 11.7477 8.41631 10.2538 9.33702 9.33128C10.2577 8.41057 11.7516 8.41057 12.6742 9.33128C13.5949 10.252 13.5949 11.7459 12.6742 12.6684C11.7516 13.591 10.2587 13.591 9.33702 12.6684Z" stroke="#A2A2A7" stroke-width="1.3" stroke-linecap="round" stroke-linejoin="round"/>
<path d="M18.3407 11.0022C18.3407 11.5203 18.2169 12.0329 17.9776 12.5052C16.7423 14.9391 14.0132 16.5045 11.0044 16.5045C7.99552 16.5045 5.26638 14.9391 4.03112 12.5052C3.79177 12.0329 3.66797 11.5203 3.66797 11.0022C3.66797 10.484 3.79177 9.97141 4.03112 9.49913C5.26638 7.06528 7.99552 5.49988 11.0044 5.49988C14.0132 5.49988 16.7423 7.06528 17.9776 9.49913C18.2169 9.97141 18.3407 10.484 18.3407 11.0022Z" stroke="#A2A2A7" stroke-width="1.3" stroke-linecap="round" stroke-linejoin="round"/>
</g>
<defs>
<clipPath id="clip0_557_3831">
<rect width="22" height="22" fill="white"/>
</clipPath>
</defs>
</svg>
