<svg width="22" height="22" viewBox="0 0 22 22" fill="none" xmlns="http://www.w3.org/2000/svg">
<g clip-path="url(#clip0_618_3561)">
<path d="M9.9513 12.0488C8.8788 10.9763 8.0703 9.7755 7.53314 8.55725C7.41947 8.29967 7.48639 7.99808 7.6853 7.79917L8.43605 7.04933C9.05114 6.43425 9.05114 5.56433 8.51397 5.02717L7.4378 3.951C6.72189 3.23508 5.56139 3.23508 4.84547 3.951L4.2478 4.54867C3.56855 5.22792 3.2853 6.20783 3.46864 7.1795C3.92147 9.57475 5.31297 12.1973 7.55789 14.4423C9.8028 16.6872 12.4254 18.0787 14.8206 18.5315C15.7923 18.7148 16.7722 18.4316 17.4515 17.7523L18.0482 17.1556C18.7641 16.4397 18.7641 15.2792 18.0482 14.5633L16.973 13.488C16.4358 12.9508 15.565 12.9508 15.0287 13.488L14.201 14.3167C14.0021 14.5156 13.7005 14.5825 13.4429 14.4688C12.2246 13.9307 11.0238 13.1213 9.9513 12.0488Z" stroke="#818185" stroke-width="1.3" stroke-linecap="round" stroke-linejoin="round"/>
</g>
<defs>
<clipPath id="clip0_618_3561">
<rect width="22" height="22" fill="white"/>
</clipPath>
</defs>
</svg>
