<svg width="25" height="17" viewBox="0 0 25 17" fill="none" xmlns="http://www.w3.org/2000/svg">
<path d="M3.87327 0.53125C3.87327 0.390354 3.95558 0.255228 4.1021 0.1556C4.24861 0.0559708 4.44732 0 4.65452 0L20.2795 0C20.4867 0 20.6854 0.0559708 20.832 0.1556C20.9785 0.255228 21.0608 0.390354 21.0608 0.53125C21.0608 1.10287 21.042 1.64688 21.0076 2.16325C21.625 2.23277 22.2157 2.38565 22.7448 2.61288C23.274 2.84011 23.7308 3.13708 24.0885 3.48628C24.4461 3.83549 24.6973 4.22986 24.8272 4.64613C24.9572 5.0624 24.9632 5.49215 24.845 5.91004C24.7268 6.32792 24.4867 6.72548 24.1389 7.07927C23.7912 7.43305 23.3427 7.73591 22.8201 7.96997C22.2975 8.20403 21.7112 8.36455 21.0959 8.44208C20.4805 8.51961 19.8486 8.51257 19.2373 8.42138C18.003 10.4029 16.303 11.3719 14.8108 11.6206V13.9294L17.0373 14.3076C17.3405 14.3586 17.6264 14.4511 17.8764 14.5786L20.7483 16.0438C20.8794 16.1107 20.9763 16.2039 21.0252 16.3103C21.0741 16.4168 21.0725 16.531 21.0207 16.6367C20.9688 16.7425 20.8693 16.8345 20.7363 16.8997C20.6033 16.9649 20.4435 17 20.2795 17H4.65452C4.49055 17 4.33074 16.9649 4.19772 16.8997C4.0647 16.8345 3.96522 16.7425 3.91336 16.6367C3.86151 16.531 3.85992 16.4168 3.90881 16.3103C3.9577 16.2039 4.0546 16.1107 4.18577 16.0438L7.05765 14.5786C7.30765 14.4511 7.59359 14.3586 7.89671 14.3076L10.1233 13.9294V11.6206C8.63109 11.3719 6.93109 10.4029 5.69671 8.42031C5.08513 8.512 4.45273 8.51942 3.83685 8.44214C3.22098 8.36486 2.63413 8.20444 2.11095 7.97036C1.58777 7.73628 1.13888 7.43328 0.790783 7.07926C0.442687 6.72523 0.202444 6.32737 0.0842445 5.90916C-0.0339554 5.49095 -0.027716 5.06087 0.102594 4.64433C0.232904 4.22779 0.484643 3.83322 0.842943 3.48394C1.20124 3.13466 1.65884 2.83774 2.18871 2.61073C2.71857 2.38371 3.30997 2.23119 3.92796 2.16219C3.89118 1.6189 3.87294 1.07511 3.87327 0.53125ZM4.02796 3.23C3.21263 3.33145 2.48995 3.64898 2.01891 4.11275C1.54787 4.57652 1.36706 5.14854 1.51624 5.70297C1.66543 6.2574 2.13239 6.74882 2.81441 7.06912C3.49642 7.38943 4.33763 7.51238 5.15296 7.41094C4.63265 6.29531 4.23421 4.91831 4.02796 3.23ZM19.7826 7.41094C20.598 7.51238 21.4392 7.38943 22.1212 7.06912C22.8032 6.74882 23.2702 6.2574 23.4194 5.70297C23.5686 5.14854 23.3877 4.57652 22.9167 4.11275C22.4457 3.64898 21.723 3.33145 20.9076 3.23C20.6998 4.91937 20.3014 6.29531 19.7826 7.41094Z" fill="#FFAA04" fill-opacity="0.65"/>
</svg>
