<svg width="33" height="35" viewBox="0 0 33 35" fill="none" xmlns="http://www.w3.org/2000/svg">
<mask id="path-1-inside-1_593_21505" fill="white">
<path d="M31.4331 24.9433C29.8095 28.6075 27.0381 31.5613 23.5913 33.3014C20.1445 35.0414 16.2354 35.46 12.5302 34.4859C8.82495 33.5118 5.5528 31.2053 3.27128 27.9593C0.989745 24.7132 -0.160002 20.7286 0.0179348 16.6843C0.195872 12.64 1.69048 8.7862 4.24711 5.77962C6.80373 2.77305 10.2642 0.799687 14.0388 0.195775C17.8135 -0.408137 21.6688 0.394766 24.9479 2.46768C28.227 4.5406 30.7269 7.75526 32.0218 11.5639L16.5 17.5L31.4331 24.9433Z"/>
</mask>
<path d="M31.4331 24.9433C29.8095 28.6075 27.0381 31.5613 23.5913 33.3014C20.1445 35.0414 16.2354 35.46 12.5302 34.4859C8.82495 33.5118 5.5528 31.2053 3.27128 27.9593C0.989745 24.7132 -0.160002 20.7286 0.0179348 16.6843C0.195872 12.64 1.69048 8.7862 4.24711 5.77962C6.80373 2.77305 10.2642 0.799687 14.0388 0.195775C17.8135 -0.408137 21.6688 0.394766 24.9479 2.46768C28.227 4.5406 30.7269 7.75526 32.0218 11.5639L16.5 17.5L31.4331 24.9433Z" fill="#EED70C" stroke="#333333" stroke-width="0.4" mask="url(#path-1-inside-1_593_21505)"/>
<ellipse cx="22.6875" cy="10.9375" rx="2.0625" ry="2.1875" fill="#333333"/>
</svg>
