<svg width="16" height="16" viewBox="0 0 16 16" fill="none" xmlns="http://www.w3.org/2000/svg">
<path fill-rule="evenodd" clip-rule="evenodd" d="M7.99998 14.6667C4.31998 14.6667 1.33331 11.6867 1.33331 8.00004C1.33331 4.32004 4.31998 1.33337 7.99998 1.33337C11.6866 1.33337 14.6666 4.32004 14.6666 8.00004C14.6666 11.6867 11.6866 14.6667 7.99998 14.6667ZM10.1266 10.4734C10.2066 10.52 10.2933 10.5467 10.3866 10.5467C10.5533 10.5467 10.72 10.46 10.8133 10.3C10.9533 10.0667 10.88 9.76004 10.64 9.61337L8.26665 8.20004V5.12004C8.26665 4.84004 8.03998 4.62004 7.76665 4.62004C7.49331 4.62004 7.26665 4.84004 7.26665 5.12004V8.48671C7.26665 8.66004 7.35998 8.82004 7.51331 8.91337L10.1266 10.4734Z" fill="#030D13" fill-opacity="0.5"/>
</svg>
