<svg width="22" height="22" viewBox="0 0 22 22" fill="none" xmlns="http://www.w3.org/2000/svg">
<g clip-path="url(#clip0_618_3686)">
<path d="M8.89844 16.8154V17.15C8.89844 18.3095 9.83894 19.25 10.9994 19.25C12.1599 19.25 13.1004 18.3095 13.1004 17.149V16.8145" stroke="#A2A2A7" stroke-width="1.3" stroke-linecap="round" stroke-linejoin="round"/>
<path d="M12.6789 5.27175V4.43025C12.6789 3.50258 11.9272 2.75 10.9986 2.75C10.07 2.75 9.31836 3.50258 9.31836 4.43025V5.27175" stroke="#A2A2A7" stroke-width="1.3" stroke-linecap="round" stroke-linejoin="round"/>
<path d="M6.01543 9.33896C6.01543 7.04455 7.87535 5.18555 10.1688 5.18555H11.8308C14.1252 5.18555 15.9842 7.04546 15.9842 9.33896V11.9029C15.9842 12.3887 16.1776 12.8553 16.5213 13.199L17.1089 13.7866C17.4527 14.1304 17.6461 14.597 17.6461 15.0828C17.6461 16.0398 16.8706 16.8153 15.9136 16.8153H6.08602C5.12902 16.8153 4.35352 16.0398 4.35352 15.0828C4.35352 14.597 4.54693 14.1304 4.89068 13.7866L5.47827 13.199C5.82202 12.8553 6.01543 12.3887 6.01543 11.9029V9.33896Z" stroke="#A2A2A7" stroke-width="1.3" stroke-linecap="round" stroke-linejoin="round"/>
</g>
<defs>
<clipPath id="clip0_618_3686">
<rect width="22" height="22" fill="white"/>
</clipPath>
</defs>
</svg>
