<svg width="51" height="50" viewBox="0 0 51 50" fill="none" xmlns="http://www.w3.org/2000/svg">
<path d="M45.9999 25C45.9999 38.8071 35.7025 50 22.9999 50C10.2974 50 0 38.8071 0 25C0 11.1929 10.2974 0 22.9999 0C35.7025 0 45.9999 11.1929 45.9999 25Z" fill="#26BDD0"/>
<path d="M45.8825 24.9206C45.8825 38.7277 35.5842 49.9215 22.8818 49.9215C16.688 49.9215 11.0654 47.2612 6.93164 42.9324C7.18491 42.9425 7.43976 42.9458 7.69454 42.9458C9.96145 42.9458 12.1619 42.6319 14.2605 42.0427C17.0724 41.2539 19.7036 39.9681 22.0663 38.2796C28.2338 33.8686 32.5854 26.7015 33.6338 18.3896C33.796 17.1123 33.8795 15.8081 33.8795 14.4838C33.8795 12.6492 33.7203 10.855 33.4146 9.11603C32.9437 6.4355 32.1268 3.88757 31.0165 1.5293C39.7041 5.10116 45.8825 14.227 45.8825 24.9206Z" fill="#1FB0C2"/>
<path d="M45.8825 24.9206C45.8825 38.7277 35.5842 49.9215 22.8818 49.9215C16.688 49.9215 11.0654 47.2612 6.93164 42.9324C7.18491 42.9425 7.43976 42.9458 7.69454 42.9458C9.96145 42.9458 12.1619 42.6319 14.2605 42.0427C17.0724 41.2539 19.7036 39.9681 22.0663 38.2796C28.2338 33.8686 32.5854 26.7015 33.6338 18.3896C33.796 17.1123 33.8795 15.8081 33.8795 14.4838C33.8795 12.6492 33.7203 10.855 33.4146 9.11603C32.9437 6.4355 32.1268 3.88757 31.0165 1.5293C39.7041 5.10116 45.8825 14.227 45.8825 24.9206Z" fill="#1FB0C2"/>
<path d="M40.9545 24.9997C40.9545 35.7781 32.9159 44.5157 22.9997 44.5157C13.0835 44.5157 5.04492 35.7781 5.04492 24.9997C5.04492 14.2212 13.0835 5.48364 22.9997 5.48364C32.9159 5.48364 40.9545 14.2212 40.9545 24.9997Z" fill="#FEFEFE"/>
<path d="M40.8822 24.9403C40.8822 35.7194 32.8446 44.4575 22.9279 44.4575C19.8024 44.4575 16.8653 43.5898 14.3066 42.0623C17.1186 41.2735 19.7499 39.9878 22.1126 38.2993C28.2801 33.8882 32.6315 26.7211 33.68 18.4093C33.8422 17.132 33.9256 15.8278 33.9256 14.5035C33.9256 12.6689 33.7665 10.8747 33.4608 9.13574C37.9575 12.6807 40.8822 18.4395 40.8822 24.9403Z" fill="#E8E8E4"/>
<path d="M35.3177 25.0003C35.3177 32.3939 29.8036 38.3874 23.0016 38.3874C16.1997 38.3874 10.6855 32.3939 10.6855 25.0003C10.6855 17.6069 16.1997 11.6133 23.0016 11.6133C29.8036 11.6133 35.3177 17.6069 35.3177 25.0003Z" fill="#F9A729"/>
<path d="M35.1455 24.9994C35.1455 32.3931 29.6312 38.3868 22.8291 38.3868C22.5557 38.3868 22.2839 38.3768 22.0137 38.3584C28.1811 33.9473 32.5326 26.7803 33.5811 18.4685C34.5772 20.4004 35.1455 22.6276 35.1455 24.9994Z" fill="#E89A22"/>
<path d="M30.5671 25.0002C30.5671 29.5432 27.1789 33.226 22.9993 33.226C18.8198 33.226 15.4316 29.5432 15.4316 25.0002C15.4316 20.4573 18.8198 16.7744 22.9993 16.7744C27.1789 16.7744 30.5671 20.4573 30.5671 25.0002Z" fill="#FEFEFE"/>
<path d="M25.6505 24.9995C25.6505 26.692 24.3881 28.064 22.8311 28.064C21.274 28.064 20.0117 26.692 20.0117 24.9995C20.0117 23.3071 21.274 21.9351 22.8311 21.9351C24.3881 21.9351 25.6505 23.3071 25.6505 24.9995Z" fill="#26BDD0"/>
<path d="M40.8536 18.8693L23.0635 25.7234C22.7555 25.8541 22.4065 25.6899 22.2839 25.3566C22.1613 25.0232 22.3116 24.647 22.6196 24.5163L39.9657 16.4553C40.5817 16.1937 41.2797 16.5223 41.5249 17.1889C41.7701 17.8556 41.4696 18.6078 40.8536 18.8693Z" fill="#443C3F"/>
<path d="M22.2825 25.3553C22.405 25.6885 22.7539 25.8527 23.0619 25.7221L40.8515 18.8748C41.4675 18.6135 41.7681 17.8617 41.523 17.1952L22.2825 25.3553Z" fill="#2D2628"/>
<path d="M46.2425 10.293L45.8464 15.2972L49.3174 18.6592L41.4705 20.7378L39.3808 19.4039L23.087 25.6841C23.0088 25.7173 22.9281 25.7315 22.849 25.7287C22.6164 25.7207 22.3987 25.5659 22.3072 25.3169C22.1845 24.9833 22.3349 24.6068 22.643 24.476L38.5012 17.103L39.1929 14.5407L46.2425 10.293ZM47.0196 8.99222L45.9134 9.65877L38.8637 13.9064L38.6249 14.0503L38.5483 14.3341L37.9447 16.5703L22.383 23.8054C21.7393 24.0867 21.4257 24.8805 21.6835 25.5819C21.8717 26.094 22.322 26.4362 22.8309 26.4539C22.9998 26.4598 23.1655 26.4297 23.3235 26.3645L39.3131 20.2015L41.1314 21.3621L41.3677 21.5131L41.6336 21.4426L49.4803 19.364L50.7117 19.0378L49.764 18.1199L46.5439 15.001L46.9114 10.3585L47.0196 8.99222Z" fill="#FEFEFE"/>
<path d="M46.2539 10.2737L39.1995 14.5275L38.1068 18.5793L41.4791 20.7331L49.3313 18.6514L45.8577 15.2849L46.2539 10.2737Z" fill="#F9A729"/>
<path d="M45.8481 15.3001L38.1044 18.5856L41.4731 20.7346L49.3177 18.6588L45.8481 15.3001Z" fill="#E89A22"/>
</svg>
