<svg width="200" height="217" viewBox="0 0 200 217" fill="none" xmlns="http://www.w3.org/2000/svg">
<path d="M33.2999 39.9129C29.5723 39.581 35.884 24.8434 39.7871 18.4576C48.0204 4.98491 60.3502 14.8863 53.2598 21.1844C37.7913 34.9233 35.0466 40.0693 33.2999 39.9129Z" fill="#7A1FA0"/>
<path d="M96.0345 15.3118C98.7042 13.6414 99.0611 21.2293 97.662 22.0003C96.27 22.7712 93.3648 16.9821 96.0345 15.3118Z" fill="#7A351D"/>
<path d="M104.656 16.3468C107.569 16.8608 102.736 23.6778 100.58 23.2923C99.6023 23.1139 101.737 15.8258 104.656 16.3468Z" fill="#7A351D"/>
<path d="M44.6604 68.2845L44.7389 68.5986C44.7389 68.5986 47.4015 83.1891 46.3807 85.2449C45.3671 87.3007 42.7616 91.191 46.5734 100.828C48.2223 105.003 52.441 109.336 58.6941 112.512C55.1464 110.871 48.1295 107.859 46.9803 109.087C46.7376 109.351 46.2451 110.029 45.5812 111.035L45.1172 110.843C39.2425 106.952 33.5247 101.741 29.4203 97.6797V97.6718C29.3774 97.0729 27.5286 69.6193 31.5831 53.8367C35.6876 37.8828 68.709 21.0873 79.3664 19.3734C90.0238 17.6674 98.1113 27.9678 98.1113 27.9678C98.1113 27.9678 110.303 22.657 116.549 28.6602C121.125 33.0645 130.762 49.2825 138.635 62.2955C140.398 65.2222 142.083 67.9847 143.596 70.4117C144.531 71.9178 145.402 73.2884 146.187 74.4947C153.939 86.337 157.993 87.8932 157.987 89.4357C157.987 90.9769 153.822 97.5797 150.645 98.7361C150.645 98.7361 146.687 93.4538 146.18 93.4538C145.673 93.4538 151.477 101.425 151.477 102.71C151.47 104.003 139.956 110.907 134.817 111.949C133.546 112.207 132.089 102.234 130.319 100.149C130.39 100.571 133.019 110.296 132.349 113.18C131.664 116.143 116.873 116.891 114.718 115.921C113.583 115.407 115.971 104.686 117.092 98.7361C122.388 90.3344 123.845 82.204 123.845 82.204C123.845 82.204 131.297 80.4266 131.318 71.2254C131.34 63.1592 124.415 57.8413 118.484 64.3513C100.867 58.6407 98.3541 42.2443 98.1042 40.1884C98.2327 41.6946 98.9822 50.5746 98.0543 51.9879C97.0335 53.5298 81.6363 56.7848 79.9446 56.5992C78.2521 56.4136 75.2405 45.2851 75.0692 46.4837C74.8907 47.6836 75.3761 57.6343 75.0335 58.5629C74.6909 59.4902 61.4923 62.7738 59.9719 62.6025C58.4514 62.4311 57.2879 54.365 56.6097 55.0495C55.9316 55.7355 54.5539 64.3156 53.5403 65.3435C52.9907 65.8932 48.6506 67.2352 44.6604 68.2845ZM98.1042 40.167C98.09 40.0385 98.0828 39.9743 98.0828 39.9743C98.0828 39.9743 98.09 40.0457 98.1042 40.167Z" fill="#7A351D"/>
<path d="M33.1611 136.861C34.7743 128.895 42.2766 116.018 45.5816 111.035C46.2455 110.029 46.738 109.351 46.9807 109.087C48.13 107.859 55.1468 110.871 58.6945 112.512C59.3227 112.841 59.9722 113.148 60.6361 113.434C60.7068 113.462 60.7432 113.484 60.7432 113.484C67.3246 116.382 75.8262 118.009 85.7127 117.123L85.7484 117.538C85.7484 117.538 91.7088 125.64 98.59 122.499C106.67 118.816 104.7 111.514 104.7 111.514L104.636 111.406C110.19 107.952 114.208 103.305 117.092 98.7361C118.377 104.504 116.072 113.976 117.206 114.49C119.362 115.461 130.526 114.554 131.212 111.591C131.883 108.708 130.391 100.571 130.319 100.149C132.09 102.234 133.96 110.179 135.23 109.922C140.37 108.88 150.342 103.112 150.349 101.82C150.349 100.535 145.674 93.4538 146.181 93.4538C146.687 93.4538 149.85 97.4441 149.85 97.4441C153.026 96.2877 157.987 90.9769 157.987 89.4357C157.994 87.8932 153.94 86.337 146.187 74.4947C145.402 73.2884 144.532 71.9178 143.596 70.4117C148.836 72.8244 156.594 78.0496 161.506 82.1969C163.819 84.1456 165.497 85.8588 165.989 86.9152C167.552 90.3059 149.15 129.159 149.15 129.159L177.187 191.487C177.187 191.487 166.801 206.589 123.545 215.305C97.0974 220.631 66.4038 207.672 66.4038 207.672C62.3707 194.074 61.6562 155.606 61.6562 155.606C53.1124 152.851 32.6115 142.294 32.8756 138.803C32.9184 138.196 33.0183 137.547 33.1611 136.861Z" fill="#FFC000"/>
<path d="M104.701 111.514C104.701 111.514 106.671 118.816 98.5902 122.499C91.709 125.64 85.7486 117.538 85.7486 117.538L85.7129 117.123C87.9043 116.931 90.16 116.617 92.4721 116.161C97.1769 115.24 101.203 113.555 104.636 111.406L104.701 111.514Z" fill="#FABAAD"/>
<path d="M80.3814 117.365C80.3793 117.365 80.3771 117.365 80.375 117.365C80.3771 117.365 80.3793 117.365 80.3814 117.365ZM80.3829 117.365C81.6249 117.365 82.8919 117.325 84.1847 117.241C84.2967 117.234 84.4095 117.227 84.5223 117.218C83.1125 117.318 81.7327 117.365 80.3829 117.365ZM84.5973 117.213C84.6001 117.213 84.6023 117.213 84.6051 117.213C84.6023 117.213 84.6001 117.213 84.5973 117.213Z" fill="#EFDDED"/>
<path d="M83.9609 119.229C77.1489 119.229 70.2405 117.721 64.1152 114.795C68.8058 116.393 74.275 117.365 80.3761 117.365C80.3782 117.365 80.3804 117.365 80.3825 117.365C80.3825 117.365 80.3832 117.365 80.384 117.365C81.7338 117.365 83.1136 117.318 84.5234 117.218C84.5484 117.217 84.5734 117.216 84.5984 117.213C84.6012 117.213 84.6034 117.213 84.6062 117.213C84.9731 117.187 85.3414 117.157 85.7126 117.123L85.7483 117.538C85.7483 117.538 86.2523 118.223 87.1367 119.119C86.0831 119.192 85.0231 119.229 83.9609 119.229Z" fill="#FFC000"/>
<path d="M104.91 113.635C104.91 113.585 104.911 113.535 104.911 113.487C104.912 112.3 104.699 111.514 104.699 111.514L104.635 111.406C110.188 107.952 114.207 103.305 117.091 98.7361C117.122 98.8774 117.15 99.0223 117.177 99.1672C114.595 105.541 110.243 110.333 104.91 113.635Z" fill="#FFC000"/>
<path d="M87.1369 119.119C86.2525 118.223 85.7486 117.538 85.7486 117.538L85.7129 117.123C87.9043 116.931 90.16 116.617 92.4721 116.161C97.1769 115.24 101.203 113.555 104.636 111.406L104.701 111.514C104.701 111.514 104.913 112.3 104.913 113.487C104.913 113.535 104.912 113.585 104.911 113.635C104.911 113.635 104.911 113.635 104.91 113.636C99.6845 116.871 93.5157 118.672 87.1384 119.118C87.1377 119.118 87.1377 119.118 87.1369 119.119Z" fill="#F4A09B"/>
<path d="M6.94897 92.376C6.67771 92.012 1.67381 85.3805 3.18711 83.2034C4.7361 80.962 11.4389 89.0282 11.4389 89.0282C11.4389 89.0282 7.11312 82.411 8.63356 80.4123C10.1469 78.4065 17.4921 88.3429 17.4921 88.3429C17.4921 88.3429 17.9561 83.6388 19.6978 83.9529C21.982 84.3669 23.2955 91.2267 23.2955 91.2267C23.2955 91.2267 25.6939 93.9821 29.4201 97.6726V97.6797C33.5245 101.741 39.2423 106.952 45.117 110.843L45.581 111.035C42.276 116.018 34.7737 128.895 33.1605 136.861C16.2929 119.937 0.795794 99.5499 0.817208 97.5012C0.838623 95.3741 5.17153 98.1365 5.57127 98.3935C5.12156 97.9081 -0.910227 91.3909 0.117677 89.1709C1.15986 86.9153 6.67058 92.1119 6.94897 92.376Z" fill="#FABAAD"/>
<path d="M169.301 28.9743C170.378 30.7303 167.63 58.8977 161.863 82.1398L161.506 82.1969C156.595 78.0496 148.835 72.8244 143.596 70.4117C142.083 67.9847 140.398 65.2222 138.635 62.2955C144.117 50.2962 146.801 35.1703 146.801 35.1703C146.801 35.1703 144.395 28.6103 146.144 27.0827C147.472 25.9192 150.291 29.7095 150.291 29.7095C150.291 29.7095 151.476 17.4104 153.803 18.3455C156.131 19.2806 155.838 27.1826 155.838 27.1826C155.838 27.1826 157.43 16.8179 159.914 17.9386C162.391 19.0593 161.406 27.7608 161.406 27.7608C161.406 27.7608 163.504 20.0444 165.61 21.472C167.716 22.8997 165.674 32.2222 165.674 32.2222C165.674 32.2222 168.13 27.0756 169.301 28.9743Z" fill="#FABAAD"/>
<path d="M118.484 64.3513C124.415 57.8413 131.34 63.1592 131.318 71.2254C131.297 80.4266 123.844 82.204 123.844 82.204C123.844 82.204 122.388 90.3344 117.092 98.7361C114.208 103.305 110.189 107.952 104.636 111.406C101.202 113.555 97.1761 115.24 92.4713 116.161C90.1592 116.617 87.9036 116.931 85.7121 117.123C75.8257 118.009 67.3241 116.382 60.7426 113.484C60.7426 113.484 60.7062 113.462 60.6355 113.434C60.3786 113.305 59.6641 112.955 58.694 112.512C52.4409 109.336 48.2222 105.003 46.5732 100.828C42.7614 91.191 45.3669 87.3007 46.3805 85.2449C47.4013 83.1891 44.7387 68.5986 44.7387 68.5986L44.6602 68.2845C48.6505 67.2352 52.9905 65.8932 53.5402 65.3435C54.5538 64.3156 55.9315 55.7355 56.6096 55.0495C57.2877 54.365 58.4513 62.4311 59.9717 62.6025C61.4921 62.7738 74.6907 59.4902 75.0333 58.5629C75.376 57.6343 74.8906 47.6836 75.069 46.4837C75.2404 45.2851 78.252 56.4136 79.9444 56.5992C81.6362 56.7848 97.0333 53.5298 98.0541 51.9879C98.9821 50.5746 98.2326 41.6946 98.1041 40.1885C98.3539 42.2443 100.867 58.6407 118.484 64.3513Z" fill="#FABAAD"/>
<path d="M74.7319 46.4359C74.7455 46.3838 74.7334 46.3295 74.829 46.1882C74.9383 46.0554 75.1181 46.0155 75.2666 46.0797C75.3387 46.1111 75.3901 46.1582 75.4137 46.1825C75.5072 46.2824 75.5243 46.3281 75.5657 46.3909C75.6321 46.5044 75.6828 46.6072 75.7341 46.7121L76.0133 47.3296L76.5115 48.5617L77.4923 51.0094C77.8164 51.8231 78.1469 52.6319 78.5059 53.4185C78.865 54.1959 79.249 54.9939 79.708 55.6128C79.818 55.7577 79.9464 55.8983 80.0257 55.9469C80.0628 55.9761 80.0842 55.9683 80.015 55.954C80.0535 55.9561 80.1556 55.9526 80.2448 55.9476C80.6338 55.9254 81.0686 55.8655 81.4926 55.8027C82.3456 55.6749 83.2057 55.5157 84.063 55.3487C85.7791 55.0132 87.4901 54.6284 89.1926 54.223C90.8972 53.8318 92.5982 53.4099 94.2628 52.9145C95.0909 52.6654 95.921 52.3999 96.6834 52.0758C96.8718 51.9944 97.0567 51.9088 97.2181 51.8181C97.3737 51.7417 97.5357 51.6011 97.5122 51.6297C97.6071 51.4948 97.7199 51.0243 97.7691 50.6389C97.984 48.9792 97.9533 47.2018 97.929 45.4601C97.9155 43.7077 97.8305 41.9531 97.7641 40.1964C97.7577 40.0079 97.904 39.8502 98.0925 39.8423C98.2688 39.8359 98.4202 39.9665 98.443 40.1386C98.6757 41.8903 98.8341 43.6499 98.9691 45.4159C99.069 47.1904 99.1697 48.9471 99.0083 50.7924C98.9855 51.0243 98.9512 51.2621 98.9013 51.5076C98.8363 51.7632 98.7999 52.003 98.5993 52.3399C98.3152 52.7268 98.0889 52.821 97.8662 52.9631C97.6449 53.0894 97.43 53.1915 97.2159 53.2872C96.3607 53.6626 95.5135 53.9425 94.6604 54.213C92.9551 54.7427 91.2405 55.1902 89.5195 55.6099C87.7942 56.0111 86.0603 56.3666 84.3164 56.6878C83.4434 56.8463 82.569 56.9955 81.6796 57.1182C81.2313 57.1775 80.7923 57.2353 80.3026 57.2574C80.1713 57.2596 80.0528 57.2639 79.8715 57.2446C79.5824 57.2053 79.4039 57.0854 79.2654 56.984C78.9899 56.7706 78.8407 56.5615 78.6894 56.3545C78.1333 55.5293 77.795 54.7077 77.4452 53.8768C77.1061 53.0473 76.8006 52.2136 76.508 51.377L75.6835 48.8608L75.2702 47.6137L75.0574 47.0055C75.0196 46.9084 74.9811 46.8114 74.9433 46.73L74.9133 46.6643L74.9961 46.7164C75.116 46.7685 75.2709 46.735 75.3594 46.6258L75.4058 46.5394V46.5323C75.3794 46.7186 75.2066 46.8478 75.0203 46.8214C74.8347 46.795 74.7055 46.6222 74.7319 46.4359Z" fill="#5B2416"/>
<path d="M56.3678 54.8111C56.427 54.7569 56.5077 54.7076 56.5855 54.6805C56.669 54.6576 56.7904 54.6691 56.8803 54.7019C56.9888 54.7554 57.0887 54.8447 57.1194 54.8918C57.2229 55.0124 57.2636 55.1009 57.3193 55.2001C57.4221 55.3907 57.4942 55.5713 57.5713 55.7555C57.7141 56.1217 57.8361 56.4836 57.9568 56.8462L58.6684 58.9984C58.9033 59.7072 59.1481 60.4132 59.4465 61.0592C59.5936 61.3747 59.7677 61.6909 59.9405 61.8829C60.0218 61.9879 60.1139 62.015 60.0511 61.9864C60.0747 61.9886 60.2767 61.9822 60.4394 61.9572C61.8506 61.7409 63.3504 61.4104 64.803 61.0628C66.2664 60.7151 67.7225 60.3304 69.1716 59.9306C70.6199 59.543 72.0776 59.1369 73.456 58.6408C73.7915 58.5165 74.1419 58.3759 74.3918 58.2375C74.4696 58.1996 74.4775 58.1803 74.5024 58.1739L74.4296 58.2631L74.4082 58.3188L74.4161 58.2553C74.4261 58.231 74.4353 58.1389 74.4418 58.0519L74.4646 57.7963C74.5017 57.0739 74.5167 56.3166 74.5331 55.567L74.5588 51.035L74.5981 48.7593C74.6216 47.9891 74.6245 47.2624 74.7323 46.4344C74.7565 46.2495 74.9257 46.1189 75.1113 46.1424C75.2812 46.1646 75.4054 46.3095 75.4054 46.4772V46.5343C75.409 47.952 75.5189 49.5181 75.5996 51.0121L75.7816 55.5592C75.7994 56.3237 75.8237 57.0803 75.7866 57.8698L75.7631 58.1803C75.7559 58.2817 75.7531 58.3795 75.7174 58.5387L75.6695 58.7535C75.671 58.7721 75.631 58.8592 75.5839 58.9334C75.5389 59.007 75.4853 59.0762 75.4282 59.1369C75.3026 59.2454 75.1641 59.346 75.0721 59.3931C74.6616 59.6258 74.3054 59.7636 73.9349 59.9099C72.4723 60.4617 71.0154 60.8864 69.5471 61.3047C68.0752 61.7009 66.5969 62.0578 65.1093 62.3912C63.6109 62.7067 62.1555 63.0629 60.5601 63.2106C60.3481 63.2214 60.1674 63.2535 59.8177 63.1985C59.3794 63.0936 59.1731 62.8459 59.0189 62.6631C58.7091 62.2698 58.5478 61.8965 58.3879 61.5239C58.086 60.7787 57.8682 60.0406 57.6634 59.3025L57.1116 57.0932C57.0195 56.7291 56.926 56.3658 56.821 56.0167C56.7689 55.8447 56.7168 55.6677 56.654 55.5185C56.6269 55.4478 56.5862 55.3622 56.5684 55.3379H56.6005L56.7554 55.3472L56.8518 55.2901C56.7197 55.4236 56.5041 55.4243 56.3699 55.2922C56.2372 55.1602 56.2357 54.9446 56.3678 54.8111Z" fill="#5B2416"/>
<path d="M54.6554 36.2267C52.4675 37.9178 50.3382 39.7223 48.3666 41.6646C46.3843 43.5912 44.4999 45.6313 42.943 47.8784C42.5854 48.4566 42.1649 49.0027 41.8594 49.6052L41.3626 50.4882C41.2027 50.7851 41.0835 51.0971 40.9421 51.4004C40.3854 52.6146 39.9814 53.9481 39.6237 55.2636C38.9163 57.9126 38.5052 60.648 38.3024 63.3891C38.1989 64.7589 38.1461 66.138 38.1918 67.495C38.2032 67.834 38.2232 68.1702 38.2546 68.4972C38.2703 68.6606 38.2896 68.8213 38.3131 68.9712C38.3267 69.0418 38.3381 69.1211 38.3538 69.1739L38.3717 69.2424C38.371 69.2424 38.3724 69.2467 38.3738 69.251C38.3781 69.2617 38.3824 69.2731 38.3417 69.2003C38.3239 69.1746 38.1804 69.0011 38.0183 68.9883L38.0326 68.9869C38.0833 68.9847 38.1461 68.9861 38.2189 68.9797C38.3667 68.969 38.5287 68.9483 38.6907 68.9269C39.0205 68.8769 39.3539 68.8205 39.6915 68.7549C42.3919 68.2224 45.0909 67.5035 47.7684 66.7754C49.104 66.4014 50.4417 66.0124 51.733 65.5591C52.0542 65.4449 52.3726 65.325 52.6724 65.1965C52.8216 65.1315 52.9608 65.0644 53.075 64.9987L53.1614 64.9302L53.2434 64.8124C53.5211 64.3249 53.726 63.6182 53.9273 62.98C54.3263 61.6638 54.6646 60.3104 55.0108 58.9569C55.1857 58.2802 55.3556 57.6021 55.5469 56.9226C55.6433 56.5842 55.7432 56.2459 55.8567 55.9046C55.9196 55.7326 55.9638 55.567 56.0452 55.3878L56.1573 55.1251C56.2179 55.0195 56.2929 54.9096 56.3671 54.8111C56.4713 54.6712 56.6684 54.6433 56.8076 54.7475C56.9196 54.8311 56.9596 54.976 56.9161 55.1016L56.8511 55.29L56.7861 55.4207L56.7062 55.6448C56.6476 55.7861 56.6091 55.9625 56.5613 56.1209C56.4713 56.4472 56.39 56.7834 56.3136 57.121L55.8639 59.1575C55.5705 60.5231 55.2864 61.8929 54.9295 63.2649C54.7303 63.9601 54.5776 64.6197 54.1921 65.3642C54.1236 65.4699 54.0508 65.5748 53.9751 65.6754C53.908 65.7732 53.756 65.8753 53.6632 65.9395C53.4776 66.0538 53.3027 66.1401 53.1342 66.2187C52.7959 66.3743 52.4639 66.5078 52.1299 66.6355C50.7979 67.1395 49.4616 67.5621 48.1182 67.9739C45.43 68.7956 42.7245 69.5087 39.9506 70.0869C39.6037 70.1582 39.2497 70.2203 38.8892 70.2782C38.7058 70.3039 38.5209 70.3296 38.321 70.346C38.2211 70.3545 38.1076 70.3581 37.9841 70.3574C37.902 70.3524 37.8192 70.3438 37.7378 70.3324C37.4987 70.2817 37.2595 70.0926 37.2089 69.9762C37.0982 69.8049 37.1089 69.7771 37.0732 69.695C37.0433 69.615 37.0354 69.5693 37.0204 69.5122C36.9883 69.3966 36.974 69.3024 36.9547 69.2024C36.9219 69.0076 36.8983 68.8213 36.8798 68.6378C36.8419 68.2702 36.8177 67.909 36.8027 67.5507C36.7427 66.1173 36.787 64.7004 36.8819 63.2856C37.0996 60.4595 37.5558 57.6507 38.3088 54.9074C38.6957 53.5348 39.1133 52.1849 39.7272 50.8636C40.294 49.5167 41.0978 48.3189 41.9158 47.1489C45.34 42.574 49.6529 38.8807 54.2649 35.6692C54.4198 35.5621 54.6318 35.6 54.7389 35.7542C54.8431 35.9034 54.811 36.1068 54.6682 36.2174L54.6554 36.2267Z" fill="#5B2416"/>
<path d="M104.89 88.5577C104.889 88.5577 104.887 88.5577 104.885 88.5577C99.5616 88.5541 95.258 84.172 95.2715 78.7712C95.2858 73.3711 99.6094 68.9968 104.93 68.9968C104.932 68.9968 104.935 68.9968 104.937 68.9968C110.26 68.9997 114.565 73.3811 114.551 78.7826C114.537 84.1827 110.213 88.5577 104.89 88.5577Z" fill="#F68C91"/>
<path d="M55.8604 104.583C55.8583 104.583 55.8555 104.583 55.854 104.583C50.5304 104.58 46.226 100.199 46.2403 94.7965C46.2545 89.3972 50.5789 85.0221 55.9004 85.0221C55.9019 85.0221 55.904 85.0221 55.9054 85.0221C61.2291 85.0257 65.5335 89.4071 65.5199 94.8086C65.5049 100.208 61.182 104.584 55.8604 104.583Z" fill="#F68C91"/>
<path d="M119.909 70.3324C119.954 69.4887 120.155 68.6935 120.496 67.9161C120.84 67.1474 121.326 66.3864 122.095 65.8197C122.476 65.5398 122.991 65.305 123.486 65.2643C123.982 65.2129 124.464 65.2643 124.895 65.4021C125.761 65.6797 126.467 66.1466 127.058 66.7719C127.187 66.9104 127.181 67.1274 127.043 67.2573C126.938 67.3565 126.788 67.3758 126.665 67.3201L126.634 67.3058C125.968 67.001 125.259 66.7312 124.605 66.6248C123.937 66.5413 123.384 66.6041 122.936 66.9718C122.431 67.328 122.004 67.8962 121.62 68.5022C121.239 69.1139 120.901 69.7999 120.574 70.4766L120.563 70.5002C120.48 70.6715 120.274 70.7429 120.103 70.6608C119.974 70.5987 119.902 70.4659 119.909 70.3324Z" fill="#CA5247"/>
<path d="M74.807 75.6097C74.6449 75.6097 74.4822 75.5997 74.3194 75.5783C72.1894 75.3021 70.554 73.8687 70.5704 71.7351C70.5826 70.2425 72.3921 67.5314 74.8427 67.5314C74.9619 67.5314 75.0818 67.5378 75.2031 67.5507C77.2375 67.7713 79.0956 70.7343 78.8194 72.4968C78.5645 74.1243 76.7586 75.6097 74.807 75.6097Z" fill="#F68C91"/>
<path d="M77.4214 74.5754C76.6819 74.3655 78.1873 72.137 78.6884 72.4225C79.1895 72.7095 78.1609 74.7853 77.4214 74.5754Z" fill="#4B1A15"/>
<path d="M73.1255 74.9994C72.6401 74.7125 72.164 74.3463 71.8385 73.9144C71.5044 73.484 71.2774 72.9986 71.1818 72.4625C71.1211 72.2041 71.1061 71.9043 71.099 71.6509C71.0961 71.4075 71.1561 71.1484 71.2296 70.8807C71.3938 70.351 71.6915 69.8078 72.0005 69.2988L72.012 69.2789C72.0869 69.1554 72.0491 68.994 71.927 68.9177C71.8335 68.8591 71.7164 68.8698 71.6336 68.9341C71.094 69.3567 70.6693 69.8778 70.3559 70.5238C70.196 70.8443 70.0925 71.2076 70.0568 71.5981C70.039 71.9785 70.0604 72.3162 70.1268 72.6795C70.2602 73.3912 70.6129 74.085 71.1439 74.574C71.6665 75.0729 72.2889 75.3977 72.9913 75.5027C73.1319 75.5234 73.2619 75.4256 73.2833 75.2821C73.299 75.1736 73.2469 75.0708 73.1591 75.0187L73.1255 74.9994Z" fill="#8A2626"/>
<path d="M63.3924 73.3734C63.3974 71.5867 61.9733 70.1362 60.2109 70.1355C58.4492 70.1341 57.018 71.5831 57.0137 73.3705C57.0087 75.1579 58.4328 76.607 60.1945 76.6084C61.9555 76.6091 63.3874 75.1608 63.3924 73.3734Z" fill="#100F0D"/>
<path d="M55.5589 70.3496C56.1892 70.6451 56.7068 71.0156 57.1986 71.2526C57.4391 71.3789 57.669 71.466 57.9017 71.5424C58.1351 71.5995 58.3785 71.6252 58.7162 71.633L58.7875 71.6345C58.9881 71.6395 59.1473 71.8079 59.1423 72.0114C59.1402 72.1013 59.1059 72.1834 59.0517 72.2462C58.7661 72.576 58.325 72.7959 57.8546 72.8387C57.3877 72.8779 56.9395 72.7537 56.5554 72.5717C56.1721 72.3797 55.8516 72.122 55.5925 71.8193C55.3298 71.516 55.1263 71.1883 55.0071 70.775C54.95 70.5773 55.0614 70.3696 55.2577 70.3103C55.3462 70.2832 55.4376 70.2925 55.5154 70.3296L55.5589 70.3496Z" fill="#100F0D"/>
<path d="M87.0404 68.0375C86.1167 66.5178 86.5842 64.5233 88.0847 63.5832C89.5859 62.6431 91.5496 63.1135 92.4725 64.6333C93.3962 66.1537 92.9287 68.1481 91.429 69.0889C89.9285 70.0283 87.9634 69.5579 87.0404 68.0375Z" fill="#100F0D"/>
<path d="M92.1605 61.2841C91.7751 61.8723 91.5245 62.4633 91.2283 62.9273C91.0877 63.1643 90.937 63.3606 90.7779 63.5498C90.6087 63.7232 90.4145 63.8753 90.1304 64.0616L90.0705 64.1008C89.902 64.2122 89.8535 64.4399 89.9627 64.6105C90.0105 64.6869 90.0819 64.7383 90.1604 64.7625C90.573 64.891 91.0627 64.8425 91.4853 64.6291C91.9036 64.4142 92.2212 64.0687 92.4546 63.7089C92.6823 63.3413 92.823 62.9509 92.8879 62.5547C92.955 62.1571 92.96 61.7688 92.8494 61.3533C92.7965 61.1534 92.5938 61.0364 92.3975 61.0899C92.3076 61.1156 92.2348 61.172 92.187 61.2441L92.1605 61.2841Z" fill="#100F0D"/>
<path d="M93.4495 74.6875C96.2477 76.5791 96.0621 84.167 91.9434 90.0917C91.9434 90.0917 85.5047 86.2656 79.1231 88.7497C71.9207 91.5551 70.6286 96.7089 70.6286 96.7089C63.5261 94.1891 60.7993 87.3721 61.8843 84.3669C63.933 78.7063 70.543 82.2468 76.7818 80.5979C85.1835 78.3708 88.7526 71.5109 93.4495 74.6875Z" fill="#100F0D"/>
<path d="M79.1234 88.7498C85.505 86.2657 91.9436 90.0918 91.9436 90.0918C89.6665 93.3754 86.1688 96.1521 81.3005 97.1586C77.0176 98.0438 73.4771 97.7225 70.6289 96.7089C70.6289 96.7089 71.9209 91.5551 79.1234 88.7498Z" fill="#F46890"/>
<path d="M8.31546 97.0872C8.41968 96.297 8.67594 95.5796 9.01429 94.8837C9.3505 94.1905 9.79022 93.5445 10.2992 92.9542C10.8103 92.366 11.412 91.8456 12.0794 91.4345C12.734 91.0019 13.4914 90.7321 14.2452 90.5765C14.4308 90.5379 14.6128 90.6578 14.6513 90.8441C14.6792 90.9812 14.6221 91.1161 14.515 91.1925L14.4872 91.2125C13.9011 91.6329 13.3251 91.992 12.8168 92.4538C12.3036 92.9014 11.8103 93.3661 11.3735 93.8922C10.9238 94.4033 10.509 94.9522 10.11 95.5218C9.71741 96.0907 9.3348 96.6968 8.96504 97.2892L8.94932 97.3156C8.84868 97.477 8.63596 97.5255 8.47464 97.4256C8.35615 97.3513 8.29833 97.2171 8.31546 97.0872Z" fill="#CA5247"/>
<path d="M162.208 32.9903C161.587 32.6727 160.946 32.35 160.317 32.0638C159.682 31.7818 159.043 31.5248 158.394 31.3171C157.749 31.0915 157.087 30.9474 156.417 30.8282C155.743 30.694 155.064 30.6832 154.345 30.6247L154.312 30.6218C154.123 30.6061 153.981 30.4405 153.997 30.2507C154.009 30.1115 154.102 29.998 154.226 29.9537C154.952 29.6996 155.74 29.5411 156.524 29.5747C157.308 29.584 158.091 29.7196 158.832 29.9608C159.572 30.205 160.283 30.5319 160.928 30.9538C161.576 31.3764 162.164 31.8582 162.662 32.4821C162.781 32.6313 162.755 32.8483 162.607 32.9668C162.498 33.0538 162.353 33.0638 162.236 33.0046L162.208 32.9903Z" fill="#CA5247"/>
<path d="M118.964 59.0362C116.291 56.0103 113.59 53.0566 111.255 49.7508C108.962 46.5051 106.903 43.0823 105.176 39.5025C105.014 39.1663 104.421 39.4068 104.565 39.7609C106.107 43.5285 107.965 47.1425 110.247 50.5175C112.514 53.8724 115.099 57.1717 118.183 59.8164C118.721 60.279 119.438 59.5723 118.964 59.0362Z" fill="#5B2416"/>
<path d="M120.469 54.1523C119.318 52.0672 117.969 50.0643 116.676 48.0641C115.375 46.0533 114.069 44.046 112.772 42.0316C112.568 41.7133 112.096 41.9909 112.267 42.3271C113.369 44.5043 114.538 46.6229 115.81 48.7051C117.047 50.7274 118.377 52.7711 119.904 54.5877C120.174 54.909 120.661 54.4985 120.469 54.1523Z" fill="#5B2416"/>
<path d="M131.184 105.424C131.018 103.114 130.716 100.813 130.323 98.5306C129.927 96.2257 129.432 93.9386 128.881 91.6658C128.599 90.5008 128.286 89.3444 127.957 88.1902C127.678 87.2073 127.51 85.9909 126.876 85.1729C126.73 84.9844 126.483 85.165 126.462 85.3442C126.343 86.3421 126.827 87.4707 127.064 88.4365C127.336 89.5465 127.602 90.6564 127.871 91.7672C128.408 93.985 128.891 96.2157 129.284 98.4642C129.677 100.713 129.976 102.978 130.143 105.255C130.313 107.575 130.128 109.912 130.306 112.223C130.34 112.662 131.033 112.829 131.128 112.335C131.556 110.105 131.346 107.674 131.184 105.424Z" fill="#5B2416"/>
<path d="M149.638 98.7147C149.103 97.7532 148.57 96.7903 148.04 95.8259C146.954 93.8457 145.866 91.8663 144.786 89.8833C142.622 85.9145 140.417 81.9949 138.11 78.1074C138.04 77.9896 137.824 78.0696 137.88 78.2038C139.63 82.3504 141.534 86.377 143.612 90.368C144.655 92.3724 145.713 94.3683 146.797 96.352C147.351 97.3685 147.91 98.3835 148.471 99.3971C148.916 100.201 149.324 101.444 150.19 101.859C150.504 102.01 150.81 101.823 150.844 101.484C150.94 100.526 150.086 99.5213 149.638 98.7147Z" fill="#5B2416"/>
<path d="M152.261 88.2294C148.953 83.3732 145.476 78.6313 142.16 73.7802C138.838 68.9205 135.629 63.9823 132.375 59.0776C132.221 58.8456 131.862 59.0498 131.999 59.2974C134.883 64.4919 138.061 69.5044 141.378 74.4333C144.64 79.2788 148.031 84.1163 151.762 88.6141C151.991 88.8904 152.464 88.527 152.261 88.2294Z" fill="#5B2416"/>
<path d="M128.252 54.0694C127.527 51.1585 126.07 48.3003 124.721 45.6335C123.463 43.148 122.024 40.7574 120.295 38.5702C118.684 36.5337 116.813 34.6906 114.677 33.2094C112.74 31.8674 110.248 30.5826 107.955 31.8103C107.707 31.9431 107.876 32.3585 108.148 32.2693C110.697 31.4356 113.363 33.2972 115.269 34.8069C117.168 36.3124 118.818 38.1241 120.238 40.0835C121.751 42.1722 123.016 44.4285 124.139 46.747C125.344 49.2361 126.217 51.9537 127.626 54.3335C127.825 54.6698 128.346 54.447 128.252 54.0694Z" fill="#5B2416"/>
<path d="M35.2096 82.9114C35.1418 79.9691 35.1982 77.026 35.3659 74.0872C35.3838 73.7745 34.9034 73.7788 34.8805 74.0872C34.6571 77.081 34.5443 80.0833 34.57 83.0849C34.595 85.9616 34.6978 88.9425 35.1475 91.7871C35.1882 92.0498 35.6157 91.9856 35.6072 91.725C35.5165 88.7855 35.2774 85.8545 35.2096 82.9114Z" fill="#5B2416"/>
<path d="M42.0674 102.088C41.7912 100.904 41.5713 99.7063 41.3986 98.5028C41.0338 95.9608 40.8682 93.3925 40.7625 90.8292C40.5491 85.644 40.3906 80.4545 40.2214 75.2679C40.2043 74.7311 39.3742 74.7275 39.3849 75.2679C39.4955 80.5644 39.4841 85.871 39.7425 91.1625C39.861 93.5945 40.0601 96.0215 40.4206 98.43C40.6012 99.632 40.8232 100.828 41.1002 102.012C41.3786 103.208 41.6141 104.501 42.3208 105.527C42.4522 105.718 42.7998 105.667 42.7883 105.4C42.7391 104.264 42.3244 103.19 42.0674 102.088Z" fill="#5B2416"/>
<path d="M44.558 56.4151C44.4224 56.4151 44.284 56.388 44.1455 56.3302C43.7222 56.1517 43.5145 55.7798 43.4788 55.3387C43.4359 54.8268 43.7329 54.3621 43.9342 53.906C43.9806 53.7918 44.0255 53.6769 44.0762 53.5634L44.1412 53.4185L44.1419 53.417C44.2183 53.2129 44.2996 53.0116 44.3753 52.8082C44.4645 52.5655 44.5837 52.3349 44.6873 52.0972L44.7144 52.0329C44.7422 51.9466 44.7908 51.8723 44.8579 51.8095L44.9514 51.7224C45.0813 51.6047 45.2076 51.5483 45.3818 51.5311C45.3932 51.5297 45.4054 51.529 45.4168 51.529C45.6374 51.529 45.8137 51.741 45.9179 51.9066C46.0514 52.12 46.0592 52.3813 46.0913 52.6254C46.1335 52.9531 46.1306 53.2629 46.1049 53.5919C46.0749 53.9881 46.0243 54.3807 45.94 54.769C45.8358 55.248 45.718 55.7727 45.3304 56.1053C45.1034 56.3009 44.8364 56.4151 44.558 56.4151Z" fill="#904B27"/>
<path d="M48.5144 56.0304C48.3202 56.0304 48.1332 55.9847 47.9512 55.8876C47.7392 55.7756 47.5707 55.5514 47.4807 55.3237C47.4272 55.2074 47.3894 55.081 47.373 54.9611C47.3487 54.7784 47.3487 54.6142 47.403 54.43C47.4444 54.2915 47.505 54.1538 47.5793 54.0281L47.6599 53.8661C47.7392 53.6527 47.797 53.4328 47.8363 53.2087L47.8477 53.068C47.8591 52.891 47.9048 52.724 47.9297 52.5498C47.9276 52.5669 47.9255 52.5841 47.9226 52.6019C47.9412 52.4877 47.9712 52.3842 48.0433 52.2686C48.221 51.9845 48.5215 51.826 48.832 51.826C48.9848 51.826 49.1397 51.8638 49.2839 51.9438C49.6322 52.1365 49.8657 52.5998 49.9527 52.9745C50.0177 53.2543 50.0691 53.5534 50.0584 53.8411C50.0455 54.1445 50.0041 54.4543 49.9299 54.7491C49.9035 54.8547 49.8714 54.959 49.8321 55.0603C49.7457 55.2887 49.6336 55.495 49.4616 55.6706C49.3188 55.8148 49.1104 55.9347 48.9155 55.9883C48.8306 56.0111 48.7092 56.0268 48.6079 56.0268C48.5765 56.029 48.5451 56.0304 48.5144 56.0304Z" fill="#904B27"/>
<path d="M52.6022 55.1538C52.2924 55.1538 51.9883 55.0103 51.827 54.7048C51.6799 54.4257 51.5671 54.1516 51.5886 53.8296C51.605 53.5834 51.6414 53.3243 51.6913 53.0844C51.7627 52.7361 51.8491 52.3906 51.9226 52.0429C52.0718 51.3355 52.2046 50.6246 52.3217 49.9115C52.3852 49.5253 52.7978 49.2876 53.1625 49.2876C53.1982 49.2876 53.2332 49.2897 53.2675 49.294C53.6843 49.3504 54.017 49.7109 54.0141 50.1406C54.0091 50.8666 53.9877 51.5925 53.9506 52.3171C53.9306 52.6847 53.9185 53.0559 53.8792 53.4213C53.8549 53.6555 53.8171 53.8939 53.7629 54.1237C53.6908 54.4285 53.5087 54.6827 53.2825 54.8925C53.0969 55.0638 52.8477 55.1538 52.6022 55.1538Z" fill="#904B27"/>
<path d="M61.4296 55.2301C61.3361 55.2301 61.2404 55.223 61.1426 55.208C60.3538 55.0902 59.9819 54.29 59.8342 53.604C59.7114 53.0351 59.6229 52.4512 59.5986 51.8702C59.5508 50.7495 59.6978 49.6673 60.0569 48.6051C60.169 48.2732 60.4466 48.0598 60.785 48.0598C60.8171 48.0598 60.8499 48.0619 60.8835 48.0655C61.2475 48.109 61.5381 48.4338 61.5366 48.805C61.5331 49.319 61.5852 49.8236 61.6244 50.3347C61.6344 50.4632 61.643 50.591 61.6551 50.7195L61.6872 50.9786C61.7236 51.2085 61.7643 51.4383 61.815 51.666C61.9221 52.145 62.062 52.6075 62.2005 53.0758L62.2012 53.0765L62.2084 53.1008V53.1015C62.4097 53.2735 62.5631 53.4463 62.6388 53.7361C62.7194 54.0402 62.6837 54.3821 62.5124 54.6505C62.2519 55.0602 61.87 55.2301 61.4296 55.2301Z" fill="#904B27"/>
<path d="M64.2208 53.0365C63.9931 53.0365 63.7547 52.9723 63.5741 52.8666C63.3371 52.7281 63.0487 52.4126 63.0051 52.1271C62.958 51.8094 62.9002 51.4897 62.8724 51.1706C62.8524 50.945 62.8402 50.7173 62.8231 50.4917C62.8074 50.2647 62.7903 50.0385 62.7746 49.8122C62.7581 49.5823 62.7853 49.3617 62.8074 49.1333C62.831 48.8963 62.8902 48.6572 63.0744 48.488C63.1914 48.3817 63.3264 48.3017 63.477 48.2539C63.5477 48.231 63.6219 48.2203 63.6961 48.2203C63.8253 48.2203 63.9553 48.251 64.0702 48.2996C64.2415 48.3717 64.4221 48.4995 64.507 48.6729C64.6355 48.9356 64.7733 49.1947 64.8561 49.4781C64.9203 49.6972 64.9846 49.9171 65.0488 50.1377C65.1787 50.5795 65.2979 51.0171 65.3929 51.4682C65.4643 51.808 65.4293 52.1178 65.268 52.4226C65.1166 52.7089 64.8282 52.8945 64.5284 52.9915C64.4328 53.0222 64.3286 53.0365 64.2208 53.0365Z" fill="#904B27"/>
<path d="M67.8232 52.5055C67.8103 52.5055 67.7982 52.5055 67.7846 52.5048C67.669 52.4891 67.5534 52.4734 67.437 52.4584C67.2678 52.4177 67.1194 52.3399 66.993 52.2236C66.8517 52.1322 66.7396 52.0101 66.6568 51.8581C66.5733 51.6882 66.4998 51.5183 66.4598 51.3334C66.4419 51.2492 66.4256 51.1635 66.4127 51.0786C66.3699 50.8123 66.3234 50.5404 66.3263 50.2698C66.3284 50.0978 66.3399 49.9258 66.3599 49.7552C66.3806 49.5853 66.397 49.4132 66.4298 49.2455C66.4612 49.0877 66.5362 48.9457 66.6297 48.8165C66.7168 48.6694 66.8339 48.5524 66.9809 48.466C67.1337 48.3775 67.2985 48.3325 67.4756 48.3318C67.831 48.3318 68.1323 48.5231 68.32 48.8165C68.3978 48.9386 68.4728 49.0692 68.5085 49.2105L68.5485 49.404C68.5777 49.5346 68.612 49.6638 68.6519 49.7909C68.7233 50.0186 68.8054 50.2448 68.8939 50.4668C68.9525 50.5918 69.0096 50.7181 69.0438 50.8516C69.1338 51.2007 69.0781 51.5433 68.9125 51.8581C68.8297 52.0101 68.7183 52.1322 68.5763 52.2236C68.4949 52.3049 68.3985 52.3613 68.2872 52.392C68.143 52.4677 67.9881 52.5055 67.8232 52.5055Z" fill="#904B27"/>
<path d="M70.4397 51.3591C70.3055 51.3591 70.1799 51.3277 70.0621 51.2663C69.9714 51.2406 69.8936 51.1949 69.8265 51.1285C69.7102 51.0536 69.6181 50.9529 69.551 50.8287C69.5153 50.7438 69.4796 50.6581 69.4432 50.5732C69.3426 50.3212 69.4018 50.0485 69.4568 49.7937C69.4739 49.7137 69.491 49.6338 69.5082 49.5531C69.5417 49.3932 69.5767 49.2333 69.6109 49.0734C69.6381 48.9564 69.6916 48.855 69.7715 48.7686C69.8344 48.6709 69.9179 48.5945 70.0221 48.5388C70.0935 48.5081 70.1642 48.4781 70.2363 48.4474C70.3148 48.4374 70.3947 48.4267 70.474 48.416C70.4833 48.4153 70.4918 48.4153 70.5004 48.4153C70.6139 48.4153 70.7202 48.441 70.8188 48.4931C70.8944 48.5138 70.9608 48.5524 71.0165 48.608C71.1143 48.6709 71.1907 48.7551 71.247 48.8593C71.277 48.93 71.307 49.0021 71.337 49.0734C71.3712 49.2333 71.4055 49.3932 71.4398 49.5531C71.4569 49.6338 71.474 49.7137 71.4912 49.7937L71.5147 49.905L71.5226 49.9415C71.5675 50.0856 71.574 50.2306 71.5411 50.3755C71.5311 50.4497 71.5304 50.5082 71.504 50.5732C71.4719 50.7124 71.4076 50.8337 71.3134 50.9372C71.2377 51.0536 71.1378 51.145 71.0136 51.2121C70.9287 51.2477 70.8437 51.2842 70.7573 51.3198C70.6638 51.3327 70.5689 51.3455 70.474 51.3584C70.4626 51.3584 70.4511 51.3591 70.4397 51.3591Z" fill="#904B27"/>
<path d="M80.6225 50.9465C80.4905 50.9465 80.3563 50.9308 80.2228 50.9008C79.5539 50.7495 79.0128 50.1641 79.0079 49.4624L79.0186 49.3425C78.7816 48.5409 78.5517 47.7371 78.3083 46.9376C78.1613 46.4558 77.9949 45.9797 77.8657 45.4936C77.7244 44.9625 77.541 44.4086 77.5902 43.8532C77.6252 43.4606 77.8086 43.1315 78.1812 42.9745C78.3062 42.9217 78.4275 42.8974 78.5446 42.8974C78.7916 42.8974 79.0214 43.0045 79.2327 43.1737C79.6788 43.5313 79.9458 44.0681 80.2156 44.5599C80.4569 44.9982 80.6511 45.4657 80.8531 45.9226C81.3057 46.9476 81.7318 47.9755 82.0851 49.0391C82.2529 49.5438 82.0616 50.1449 81.6954 50.511C81.3991 50.8073 81.0194 50.9465 80.6225 50.9465Z" fill="#904B27"/>
<path d="M83.6526 48.9778C83.3043 48.9778 82.9659 48.84 82.696 48.5902C82.3092 48.2325 82.1771 47.6151 82.0058 47.1232C81.8973 46.8092 81.7774 46.4958 81.6882 46.1746C81.4904 45.4672 81.2034 44.7148 81.2641 43.9717C81.2934 43.607 81.469 43.2993 81.8145 43.1537C81.9294 43.1051 82.0443 43.083 82.1571 43.083C82.3863 43.083 82.6054 43.1772 82.7924 43.3386C83.3535 43.8254 83.6712 44.5492 84.0231 45.1902C84.1837 45.4815 84.3179 45.7884 84.4599 46.0896C84.684 46.5643 85.0353 47.0997 85.0089 47.6315C84.9824 48.1818 84.6862 48.6551 84.1758 48.87C84.0038 48.9428 83.8268 48.9778 83.6526 48.9778Z" fill="#904B27"/>
<path d="M86.992 47.9178C86.9249 47.9178 86.8578 47.9128 86.7929 47.9042C86.6215 47.8963 86.4623 47.8457 86.3139 47.7507C86.2268 47.6836 86.1404 47.6172 86.0533 47.5501C85.9705 47.4481 85.8906 47.3453 85.8121 47.2396C85.7592 47.1176 85.7078 46.9948 85.6579 46.872C85.6286 46.7942 85.6015 46.7171 85.5729 46.6393C85.5237 46.5044 85.4751 46.3688 85.4252 46.2339C85.3274 45.9633 85.2346 45.6913 85.1461 45.4172C84.9619 44.8512 84.7777 44.2858 84.5943 43.719C84.4544 43.2886 84.7213 42.8211 85.1175 42.6533C85.2324 42.6048 85.3502 42.5819 85.4658 42.5819C85.7749 42.5819 86.0669 42.7468 86.2453 43.0238L87.2061 44.5157C87.3696 44.7691 87.5288 45.0232 87.6823 45.2823C87.8679 45.5921 88.1334 45.9412 88.2069 46.2967C88.274 46.6222 88.2648 46.9969 88.0763 47.2889C87.9564 47.4752 87.8008 47.6308 87.6145 47.7507C87.431 47.8692 87.209 47.9178 86.992 47.9178Z" fill="#904B27"/>
<path d="M90.6006 46.8463C90.2751 46.8463 89.9367 46.7279 89.7262 46.4852C89.5456 46.2781 89.4099 46.0633 89.3621 45.7927C89.3493 45.7228 89.3357 45.6528 89.3193 45.5836C89.2886 45.4451 89.2465 45.3102 89.2122 45.1731C89.153 44.929 89.0723 44.6927 88.9802 44.46C88.936 44.3658 88.8946 44.2709 88.8446 44.1802C88.7725 44.0467 88.679 43.9125 88.644 43.7648C88.6283 43.6963 88.6183 43.627 88.6026 43.5585C88.5376 43.2558 88.599 42.9517 88.8225 42.7283C88.9774 42.5734 89.2072 42.4735 89.4321 42.4735C89.507 42.4735 89.582 42.4849 89.6526 42.5084L89.8047 42.562C89.941 42.6141 90.0517 42.6605 90.1637 42.7469L90.3051 42.8604C90.3907 42.9382 90.4714 43.0203 90.5499 43.1038C90.7612 43.3301 90.9525 43.577 91.1317 43.8283C91.2702 44.021 91.3986 44.2216 91.4921 44.4393C91.697 44.9147 91.9426 45.408 91.7912 45.9405C91.6735 46.356 91.3458 46.6886 90.9282 46.8035C90.8247 46.8321 90.7134 46.8463 90.6006 46.8463Z" fill="#904B27"/>
<path d="M93.7671 46.1617C93.5708 46.1617 93.3752 46.1125 93.236 46.009C93.1118 45.9183 93.0076 45.8376 92.9141 45.7156C92.8113 45.5835 92.8249 45.5999 92.7592 45.4443C92.6892 45.3115 92.6571 45.1688 92.6628 45.0153L92.6621 45.006C92.645 44.8775 92.6314 44.7491 92.6285 44.6184L92.6164 44.45C92.5879 44.2979 92.5486 44.1487 92.4979 44.0031C92.4165 43.8275 92.328 43.6562 92.2145 43.4992C92.211 43.4949 92.2074 43.4899 92.2045 43.4849C92.1988 43.4777 92.1938 43.4706 92.1881 43.4635L92.1974 43.4756C92.1453 43.3999 92.1039 43.3178 92.0789 43.2265C92.0682 43.1494 92.0575 43.0709 92.0475 42.9931C92.0389 42.8003 92.1217 42.609 92.2359 42.4613C92.3552 42.3064 92.5072 42.2057 92.6921 42.1458C92.7563 42.1258 92.837 42.1151 92.9219 42.1151C93.0847 42.1151 93.2631 42.1536 93.3688 42.2343C93.5951 42.4084 93.8113 42.5798 93.9955 42.7975C94.1775 43.0138 94.351 43.2429 94.4852 43.4927C94.6251 43.754 94.7429 44.036 94.8242 44.3208C94.8771 44.5064 94.9085 44.7012 94.8999 44.894C94.8935 45.0317 94.8821 45.1773 94.8514 45.3108C94.7836 45.6114 94.5594 45.8419 94.3175 46.009C94.1733 46.1089 93.9698 46.1617 93.7671 46.1617Z" fill="#904B27"/>
<path d="M35.6936 58.1668C35.6458 58.1668 35.5958 58.1639 35.5444 58.1568C35.1697 58.1068 34.7421 57.807 34.6707 57.403C34.6007 57.0132 34.5822 56.7163 34.66 56.3265C34.7028 56.1145 34.7735 55.9125 34.8399 55.7077C34.9726 55.2972 35.104 54.8882 35.2367 54.4785C35.5137 53.619 35.8028 52.7374 36.2739 51.9629C36.4095 51.7402 36.613 51.6432 36.8164 51.6432C37.1469 51.6432 37.476 51.9016 37.5053 52.297C37.5724 53.1986 37.4203 54.1008 37.2776 54.9896C37.209 55.4164 37.1398 55.844 37.0713 56.2709C36.9906 56.7691 36.9064 57.2402 36.593 57.655C36.361 57.9633 36.0705 58.1668 35.6936 58.1668Z" fill="#904B27"/>
<path d="M33.3903 55.3529C33.3232 55.3529 33.2562 55.3451 33.1933 55.3272C32.9357 55.2566 32.7522 55.0488 32.653 54.8126C32.5716 54.6213 32.5823 54.4528 32.6016 54.2565C32.6344 53.9274 32.7086 53.5919 32.8657 53.2957C33.047 52.9523 33.2512 52.6197 33.4432 52.2835C33.5724 52.0572 33.8144 51.9401 34.0621 51.9401C34.1206 51.9401 34.1791 51.9466 34.2362 51.9594C34.384 51.993 34.5118 52.0958 34.6017 52.2121C34.6638 52.2799 34.7059 52.3592 34.7273 52.4505L34.7523 52.6376C34.7045 53.0137 34.6567 53.3906 34.6089 53.7675C34.5896 53.9182 34.5817 54.0024 34.5389 54.1287L34.4889 54.2801C34.4382 54.4314 34.3776 54.5777 34.2948 54.7155C34.177 54.9082 34.0692 55.101 33.8665 55.2216C33.7301 55.303 33.5581 55.3529 33.3903 55.3529Z" fill="#904B27"/>
<path d="M104.898 50.6916C104.787 50.6916 104.677 50.6773 104.578 50.6502C104.248 50.5596 104.044 50.3526 103.847 50.0884C103.623 49.7858 103.477 49.416 103.326 49.0734C103.146 48.6694 102.971 48.2618 102.822 47.8456C102.558 47.1082 102.348 46.2923 102.348 45.5086C102.348 45.1409 102.602 44.8369 102.944 44.7269C103.013 44.7041 103.083 44.6941 103.153 44.6941C103.436 44.6941 103.71 44.864 103.86 45.0995C104.24 45.697 104.531 46.3573 104.862 46.9855C105.028 47.2988 105.197 47.6108 105.379 47.9141C105.568 48.2282 105.798 48.5259 105.958 48.855C106.259 49.471 106.111 50.1456 105.52 50.5274C105.348 50.6381 105.119 50.6916 104.898 50.6916Z" fill="#904B27"/>
<path d="M106.651 47.5537C106.439 47.5537 106.259 47.4717 106.091 47.3239C106.011 47.2539 105.96 47.1654 105.917 47.0719C105.922 47.0826 105.927 47.0933 105.931 47.104C105.877 46.9813 105.801 46.8642 105.765 46.735L105.715 46.5558C105.691 46.4809 105.661 46.4066 105.633 46.3324C105.577 46.2089 105.511 46.0911 105.432 45.9805L105.42 45.9669C105.294 45.8263 105.228 45.67 105.219 45.4815C105.212 45.3316 105.277 45.1817 105.366 45.0661C105.502 44.8905 105.7 44.802 105.903 44.802C106.021 44.802 106.14 44.8312 106.251 44.8898C106.423 44.9797 106.576 45.0968 106.727 45.2188C106.831 45.3023 106.927 45.3973 107.012 45.5008C107.097 45.6029 107.182 45.7057 107.245 45.8234C107.294 45.9148 107.333 46.0083 107.373 46.104C107.44 46.2631 107.457 46.3046 107.474 46.5037L107.479 46.5937C107.487 46.7907 107.457 46.9855 107.359 47.1604C107.235 47.381 107.014 47.5131 106.769 47.5459C106.728 47.5509 106.69 47.5537 106.651 47.5537Z" fill="#904B27"/>
<path d="M111.236 47.7872C111.038 47.7872 110.837 47.7358 110.644 47.6415C110.341 47.4924 110.128 47.1497 109.929 46.8892C109.824 46.7528 109.725 46.6151 109.638 46.468C109.457 46.1654 109.291 45.8549 109.139 45.5372C108.952 45.1482 108.766 44.7499 108.648 44.3344C108.602 44.1709 108.56 44.0075 108.52 43.8419C108.486 43.6955 108.448 43.5414 108.445 43.3922C108.443 43.2523 108.476 43.1123 108.51 42.9774C108.577 42.7048 108.809 42.4835 109.076 42.4107C109.149 42.3907 109.218 42.3814 109.283 42.3814C109.489 42.3814 109.669 42.4692 109.842 42.5998C109.795 42.5641 109.772 42.5463 109.772 42.5463C109.772 42.5463 109.786 42.5563 109.812 42.577C109.949 42.6576 110.058 42.7669 110.139 42.9039L110.23 43.0567C110.289 43.1609 110.348 43.2651 110.408 43.3672C110.537 43.582 110.668 43.7955 110.793 44.0118C111.05 44.4572 111.339 44.8826 111.653 45.2902C111.617 45.2438 111.581 45.1974 111.546 45.151C111.74 45.4051 111.927 45.665 112.122 45.9191L112.079 45.8627C112.187 46.0083 112.279 46.1561 112.328 46.3467C112.443 46.7985 112.283 47.2689 111.917 47.5516C111.708 47.7136 111.474 47.7872 111.236 47.7872Z" fill="#904B27"/>
<path d="M117.173 44.9725C117.086 44.9725 117.002 44.9582 116.922 44.9254C116.781 44.8676 116.657 44.8197 116.536 44.7262C116.421 44.637 116.341 44.5364 116.257 44.4164L116.156 44.2658C116.088 44.1652 116.021 44.0659 115.952 43.9667C115.814 43.7683 115.668 43.5756 115.537 43.3728C115.275 42.9624 115.001 42.5591 114.719 42.1615C114.462 41.7996 114.624 41.2671 114.947 41.0172C115.106 40.8952 115.3 40.8331 115.494 40.8331C115.72 40.8331 115.944 40.9166 116.111 41.0865C116.453 41.4355 116.788 41.7917 117.114 42.1572C117.327 42.3956 117.515 42.6583 117.708 42.9145C117.781 43.0102 117.854 43.108 117.926 43.2051L118.034 43.3521C118.152 43.5263 118.196 43.7412 118.203 43.9496C118.213 44.2665 118.048 44.5549 117.805 44.7441C117.638 44.8726 117.401 44.9725 117.173 44.9725Z" fill="#904B27"/>
<path d="M119.027 43.5078C118.936 43.5078 118.847 43.4935 118.763 43.4599C118.552 43.3771 118.386 43.3093 118.224 43.1444C118.119 43.0381 118.058 42.9338 117.989 42.8125C117.932 42.7147 117.875 42.6176 117.82 42.5198C117.711 42.3307 117.601 42.1415 117.492 41.9523C117.382 41.7617 117.282 41.5697 117.185 41.372C117.136 41.2706 117.085 41.1693 117.037 41.0672C116.983 40.9551 116.926 40.8438 116.902 40.7217L116.877 40.5611C116.845 40.3548 116.84 40.1921 116.921 40C116.981 39.858 117.065 39.7495 117.187 39.6553C117.336 39.5396 117.516 39.4704 117.708 39.4704C117.845 39.4704 118.027 39.5096 118.143 39.5874C118.284 39.6831 118.436 39.7723 118.546 39.903C118.617 39.9872 118.684 40.0757 118.753 40.1621C118.935 40.3898 119.115 40.6182 119.281 40.8581C119.405 41.0379 119.53 41.2185 119.655 41.3984C119.874 41.7153 120.129 42.0259 120.1 42.4413C120.077 42.7832 119.958 43.0595 119.684 43.2715C119.508 43.4071 119.264 43.5078 119.027 43.5078Z" fill="#904B27"/>
<path d="M196.691 9.3884C195.806 9.0679 194.821 8.91942 193.899 8.74596C193.383 8.64888 192.864 8.56822 192.346 8.48471C192.092 8.44402 191.481 8.41904 191.275 8.23558L191.244 8.11067C191.184 7.89438 191.244 7.49178 191.248 7.26978C191.259 6.69658 191.282 6.12409 191.318 5.55232C191.385 4.4823 191.857 2.94044 191.298 1.94538C190.717 0.913191 189.494 0.776846 188.443 0.584114C187.166 0.349979 185.882 0.164396 184.593 0.00592804C184.394 -0.0190544 184.179 0.0366135 183.979 0.139404C183.809 0.110851 183.637 0.0823021 183.467 0.0544643C182.93 -0.0333366 182.305 0.187237 182.174 0.788275C181.877 2.14525 181.624 3.4951 181.401 4.86635C181.289 5.55019 181.177 6.23473 181.066 6.91928C181.007 7.28547 181.001 7.81299 180.897 8.24128C180.833 8.23771 180.768 8.23701 180.703 8.23201C180.451 8.21845 180.2 8.20345 179.948 8.18989C179.396 8.15848 178.843 8.1278 178.289 8.09639C177.274 8.04 176.215 7.89438 175.201 7.96647C172.922 8.12851 172.756 11.1473 172.617 12.8968C172.48 14.6072 172.337 17.1027 174.37 17.7308C175.339 18.0307 176.448 18.0835 177.453 18.2055C178.022 18.2748 178.593 18.3319 179.164 18.3811C179.025 20.16 178.882 21.9381 178.757 23.7177C178.688 24.6942 178.984 25.5729 179.901 26.0347C180.853 26.5151 182.053 26.7114 183.093 26.8856C184.107 27.0555 185.133 27.169 186.161 27.1961C187.246 27.2247 188.573 27.3189 189.439 26.5437C190.068 25.9812 190.317 25.191 190.54 24.4058C190.873 23.2308 191.199 22.0552 191.532 20.8802C191.594 20.6625 191.643 20.3663 191.762 20.1543C191.89 20.1486 192.018 20.1436 192.145 20.1471C192.34 20.1464 192.534 20.1521 192.729 20.1528C193.833 20.1593 195.113 20.2806 196.198 20.0422C197.188 19.8245 197.601 19.02 197.725 18.0892C197.881 16.9071 198.031 15.725 198.185 14.5422C198.438 12.5985 199.041 10.24 196.691 9.3884Z" fill="#FFC000"/>
<path d="M198.981 45.0289C198.724 44.4129 198.454 43.8018 198.152 43.2065C197.848 42.6062 197.548 41.8716 196.938 41.5147C195.825 40.863 194.104 41.6882 193.063 42.1672C191.95 42.679 190.926 43.3571 189.911 44.036C189.148 44.5463 188.363 45.0146 187.572 45.4665C186.712 45.8612 185.851 46.2495 184.983 46.625C183.715 47.1725 182.431 47.6836 181.144 48.1861C180.006 48.6301 178.487 48.9235 177.668 49.8929C176.711 51.025 177.213 52.6825 177.594 53.9524C177.972 55.2058 178.465 56.5871 179.218 57.6692C180.161 59.0241 181.518 58.8256 182.918 58.4216C184.182 58.0576 185.43 57.6421 186.659 57.1753C189.145 56.2323 191.563 55.103 193.869 53.7782C195.009 53.1236 196.122 52.4227 197.205 51.6767C198.233 50.9686 199.683 50.2205 199.948 48.8921C200.201 47.6179 199.46 46.1753 198.981 45.0289Z" fill="#9829C7"/>
<path d="M191.881 109.414C191.213 108.676 190.294 108.029 189.385 107.489C188.835 106.969 188.271 106.462 187.691 105.951C186.622 105.006 185.388 104.023 184.108 105.28C183.6 105.782 183.26 106.489 182.892 107.105C182.439 107.865 181.986 108.625 181.532 109.386C180.686 110.804 179.84 112.222 178.993 113.641C175.549 119.416 172.139 125.213 168.763 131.034C168.35 131.746 167.798 132.511 167.769 133.381C167.739 134.299 168.177 135.022 168.854 135.551C170.032 136.473 171.362 137.195 172.708 137.799C174.046 138.4 175.848 139.371 177.271 138.557C178.471 137.871 179.222 136.141 179.954 134.982C183.384 129.55 186.61 123.973 189.622 118.271C190.361 116.871 191.088 115.462 191.802 114.047C192.574 112.516 193.18 110.85 191.881 109.414Z" fill="#FFC000"/>
<path d="M169.728 109.61C169.72 109.436 169.717 109.113 169.718 109.077L169.725 108.973C169.849 108.54 170.007 108.241 170.281 108.027C170.558 107.811 170.72 107.762 171.062 107.694C170.884 107.729 171.353 107.66 171.32 107.662C171.401 107.657 171.788 107.674 171.72 107.663C172.214 107.745 172.664 108.028 172.957 108.46C173.154 108.749 173.481 108.852 173.788 108.821C173.803 109.047 173.801 109.279 173.795 109.492C173.792 109.653 173.777 109.811 173.769 109.971L173.768 110.026L173.752 110.085C173.714 110.239 173.688 110.434 173.645 110.62L173.629 110.644C173.543 110.787 173.464 110.932 173.373 111.071L173.182 111.288L173.02 111.435L172.922 111.503C172.813 111.561 172.708 111.622 172.599 111.681L172.207 111.82C172.06 111.86 171.912 111.89 171.765 111.921L171.715 111.93C171.623 111.939 171.531 111.945 171.438 111.95L171.433 111.947C171.319 111.885 171.203 111.828 171.092 111.761C171.07 111.748 171.005 111.714 170.939 111.677L170.762 111.524C170.667 111.436 170.576 111.346 170.488 111.252L170.401 111.155C170.269 110.997 170.288 111.027 170.458 111.245C170.257 111.11 170.089 110.688 169.982 110.476L169.926 110.36L169.901 110.304C169.874 110.214 169.851 110.117 169.844 110.094C169.807 109.971 169.776 109.845 169.75 109.719L169.728 109.61ZM177.344 105.161C176.18 103.526 174.174 102.556 172.153 102.73C169.084 102.996 166.48 105.315 165.983 108.261C165.772 109.083 165.701 109.939 165.794 110.75C165.918 111.818 166.224 112.776 166.887 113.634C167.451 114.364 168.194 114.891 169.039 115.247C169.505 115.444 169.98 115.577 170.455 115.655C171.686 116.046 173.012 116.026 174.287 115.457C175.318 114.996 176.109 114.22 176.676 113.285C177.292 112.575 177.776 111.741 178.073 110.82C178.663 108.997 178.472 106.745 177.344 105.161Z" fill="#FFC000"/>
<path d="M193.062 135.679C193.031 135.744 192.997 135.808 192.96 135.871L192.957 135.876L192.878 135.985L192.772 136.069L192.76 136.075L192.739 136.083C192.661 136.104 192.554 136.128 192.53 136.134L192.473 136.151C192.378 136.151 192.265 136.136 192.222 136.135C192.117 136.133 192.013 136.119 191.909 136.118C191.658 136.117 192.062 136.137 192.05 136.143C191.959 136.195 191.562 136.052 191.46 136.028C191.283 135.985 191.107 135.936 190.933 135.879L190.805 135.828C190.883 135.867 190.933 135.91 190.769 135.828L190.707 135.794L190.673 135.788L190.698 135.789C190.562 135.716 190.428 135.639 190.292 135.566L190.241 135.54L190.173 135.472L190.067 135.352L190.029 135.285L190.006 135.206L189.998 135.154C189.995 135.059 189.992 134.967 189.992 134.872C189.993 134.672 190.005 134.471 190.021 134.272L190.032 134.146L190.058 133.965C190.104 133.716 190.174 133.479 190.242 133.236L190.291 133.117L190.227 133.242L190.292 133.115L190.296 133.105L190.333 133.032C190.376 132.952 190.422 132.875 190.471 132.8C190.517 132.729 190.702 132.545 190.518 132.723C190.59 132.653 190.695 132.552 190.722 132.525L190.801 132.446L190.909 132.374C191.048 132.284 191.194 132.212 191.339 132.133L191.481 132.085C191.521 132.073 191.679 132.019 191.813 131.983H191.891C192.004 131.982 192.115 131.974 192.228 131.977H192.348L192.398 131.986C192.489 132.304 192.68 132.585 192.962 132.781L192.971 132.795C192.989 132.88 193.007 132.963 193.023 133.05C193.037 133.128 193.047 133.209 193.063 133.287L193.065 133.295C193.092 133.543 193.125 133.788 193.147 134.037C193.167 134.274 193.181 134.512 193.182 134.75C193.182 134.839 193.181 134.928 193.178 135.017L193.172 135.174L193.151 135.319C193.135 135.391 193.119 135.463 193.098 135.534C193.095 135.547 193.08 135.614 193.062 135.679ZM196.292 138.092C197.306 136.797 197.906 135.12 197.799 133.609C197.654 131.558 196.397 129.587 194.559 128.668C193.748 127.869 192.632 127.365 191.45 127.323C189.108 127.238 186.905 128.844 185.786 130.817C184.425 133.215 184.449 136.198 186.183 138.386C186.964 139.373 188.129 140.041 189.369 140.247C190.683 140.466 192.254 140.488 193.539 140.096C193.997 139.956 194.432 139.739 194.841 139.463C195.409 139.139 195.902 138.682 196.292 138.092Z" fill="#FFC000"/>
<path d="M190.706 135.794L190.804 135.828L190.697 135.789L190.706 135.794Z" fill="#294C92"/>
<path d="M190.293 133.115L190.291 133.117L190.297 133.104L190.293 133.115Z" fill="#294C92"/>
</svg>
