<svg width="27" height="27" viewBox="0 0 27 27" fill="none" xmlns="http://www.w3.org/2000/svg">
<path d="M25.65 5.4C25.292 5.4 24.9486 5.54223 24.6954 5.79541C24.4422 6.04858 24.3 6.39196 24.3 6.75V20.25C24.3 21.3241 23.8733 22.3543 23.1138 23.1138C22.3543 23.8733 21.3241 24.3 20.25 24.3H6.75C6.39196 24.3 6.04858 24.4422 5.79541 24.6954C5.54223 24.9486 5.4 25.292 5.4 25.65C5.4 26.008 5.54223 26.3514 5.79541 26.6046C6.04858 26.8578 6.39196 27 6.75 27H20.25C22.0402 27 23.7571 26.2888 25.023 25.023C26.2888 23.7571 27 22.0402 27 20.25V6.75C27 6.39196 26.8578 6.04858 26.6046 5.79541C26.3514 5.54223 26.008 5.4 25.65 5.4ZM21.6 17.55V4.05C21.6 2.97587 21.1733 1.94574 20.4138 1.18622C19.6543 0.426695 18.6241 0 17.55 0H4.05C2.97587 0 1.94574 0.426695 1.18622 1.18622C0.426695 1.94574 0 2.97587 0 4.05V17.55C0 18.6241 0.426695 19.6543 1.18622 20.4138C1.94574 21.1733 2.97587 21.6 4.05 21.6H17.55C18.6241 21.6 19.6543 21.1733 20.4138 20.4138C21.1733 19.6543 21.6 18.6241 21.6 17.55ZM10.8 2.7H13.5V9.261L13.014 8.856C12.7714 8.65395 12.4657 8.54331 12.15 8.54331C11.8343 8.54331 11.5286 8.65395 11.286 8.856L10.8 9.261V2.7ZM2.7 17.55V4.05C2.7 3.69196 2.84223 3.34858 3.09541 3.09541C3.34858 2.84223 3.69196 2.7 4.05 2.7H8.1V12.15C8.09998 12.4081 8.17394 12.6607 8.3131 12.8781C8.45227 13.0954 8.65081 13.2683 8.88521 13.3763C9.11962 13.4842 9.38005 13.5228 9.63567 13.4873C9.89129 13.4518 10.1314 13.3437 10.3275 13.176L12.15 11.6505L13.9725 13.176C14.217 13.3851 14.5282 13.5 14.85 13.5C15.0453 13.4986 15.2383 13.4573 15.417 13.3785C15.6513 13.2701 15.8497 13.0967 15.9884 12.8789C16.1272 12.6612 16.2006 12.4082 16.2 12.15V2.7H17.55C17.908 2.7 18.2514 2.84223 18.5046 3.09541C18.7578 3.34858 18.9 3.69196 18.9 4.05V17.55C18.9 17.908 18.7578 18.2514 18.5046 18.5046C18.2514 18.7578 17.908 18.9 17.55 18.9H4.05C3.69196 18.9 3.34858 18.7578 3.09541 18.5046C2.84223 18.2514 2.7 17.908 2.7 17.55Z" fill="#979797"/>
</svg>
