<svg width="27" height="29" viewBox="0 0 27 29" fill="none" xmlns="http://www.w3.org/2000/svg">
<path d="M18.8996 11.821L12.1498 7.69009C11.7395 7.4393 11.2742 7.30721 10.8005 7.30709C10.3268 7.30696 9.86139 7.43879 9.45102 7.68936C9.04066 7.93992 8.69978 8.30039 8.46261 8.73457C8.22545 9.16875 8.10034 9.66135 8.09985 10.1629V18.4248C8.10034 18.9261 8.22532 19.4185 8.46227 19.8525C8.69921 20.2865 9.03979 20.6469 9.44983 20.8976C9.86027 21.1485 10.3259 21.2806 10.7998 21.2806C11.2737 21.2806 11.7393 21.1485 12.1498 20.8976L18.8996 16.7667C19.3088 16.5154 19.6484 16.1547 19.8845 15.7207C20.1206 15.2867 20.2448 14.7947 20.2448 14.2938C20.2448 13.793 20.1206 13.301 19.8845 12.867C19.6484 12.433 19.3088 12.0723 18.8996 11.821ZM17.5497 14.2938L10.7998 18.4248V10.1629L17.5497 14.2938ZM13.4998 0C10.8298 0 8.21972 0.83832 5.99969 2.40895C3.77967 3.97958 2.04938 6.21197 1.02761 8.82383C0.00584922 11.4357 -0.261491 14.3097 0.2594 17.0824C0.780291 19.8552 2.06602 22.4021 3.95399 24.4011C5.84196 26.4002 8.24739 27.7615 10.8661 28.313C13.4848 28.8646 16.1991 28.5815 18.6659 27.4996C21.1326 26.4178 23.241 24.5857 24.7244 22.2351C26.2077 19.8845 26.9995 17.1209 26.9995 14.2938C26.9995 12.4168 26.6503 10.558 25.9719 8.82383C25.2935 7.08962 24.2991 5.51388 23.0455 4.18657C21.7919 2.85926 20.3037 1.80639 18.6659 1.08805C17.028 0.369721 15.2726 0 13.4998 0ZM13.4998 25.7289C11.3638 25.7289 9.27572 25.0583 7.49971 23.8018C5.72369 22.5453 4.33945 20.7593 3.52204 18.6699C2.70463 16.5804 2.49076 14.2812 2.90747 12.063C3.32418 9.84479 4.35276 7.80725 5.86314 6.20803C7.37352 4.6088 9.29786 3.51972 11.3928 3.07849C13.4878 2.63727 15.6592 2.86372 17.6327 3.72921C19.6061 4.59471 21.2928 6.06037 22.4795 7.94086C23.6661 9.82135 24.2995 12.0322 24.2995 14.2938C24.2995 17.3266 23.1617 20.2352 21.1364 22.3797C19.111 24.5242 16.364 25.7289 13.4998 25.7289Z" fill="white"/>
</svg>
