<svg width="20" height="20" viewBox="0 0 20 20" fill="none" xmlns="http://www.w3.org/2000/svg">
<path d="M9.99996 15.8333C10.1648 15.8333 10.3259 15.7844 10.4629 15.6929C10.6 15.6013 10.7068 15.4712 10.7699 15.3189C10.8329 15.1666 10.8494 14.9991 10.8173 14.8374C10.7851 14.6758 10.7058 14.5273 10.5892 14.4107C10.4727 14.2942 10.3242 14.2148 10.1625 14.1827C10.0009 14.1505 9.83333 14.167 9.68106 14.2301C9.52878 14.2932 9.39864 14.4 9.30707 14.537C9.2155 14.674 9.16663 14.8352 9.16663 15C9.16663 15.221 9.25442 15.433 9.4107 15.5892C9.56698 15.7455 9.77895 15.8333 9.99996 15.8333ZM14.1666 15.8333C14.3314 15.8333 14.4926 15.7844 14.6296 15.6929C14.7666 15.6013 14.8735 15.4712 14.9365 15.3189C14.9996 15.1666 15.0161 14.9991 14.9839 14.8374C14.9518 14.6758 14.8724 14.5273 14.7559 14.4107C14.6393 14.2942 14.4909 14.2148 14.3292 14.1827C14.1676 14.1505 14 14.167 13.8477 14.2301C13.6955 14.2932 13.5653 14.4 13.4737 14.537C13.3822 14.674 13.3333 14.8352 13.3333 15C13.3333 15.221 13.4211 15.433 13.5774 15.5892C13.7337 15.7455 13.9456 15.8333 14.1666 15.8333ZM14.1666 12.5C14.3314 12.5 14.4926 12.4511 14.6296 12.3595C14.7666 12.268 14.8735 12.1378 14.9365 11.9855C14.9996 11.8333 15.0161 11.6657 14.9839 11.5041C14.9518 11.3424 14.8724 11.1939 14.7559 11.0774C14.6393 10.9608 14.4909 10.8815 14.3292 10.8493C14.1676 10.8172 14 10.8337 13.8477 10.8967C13.6955 10.9598 13.5653 11.0666 13.4737 11.2037C13.3822 11.3407 13.3333 11.5018 13.3333 11.6666C13.3333 11.8877 13.4211 12.0996 13.5774 12.2559C13.7337 12.4122 13.9456 12.5 14.1666 12.5ZM9.99996 12.5C10.1648 12.5 10.3259 12.4511 10.4629 12.3595C10.6 12.268 10.7068 12.1378 10.7699 11.9855C10.8329 11.8333 10.8494 11.6657 10.8173 11.5041C10.7851 11.3424 10.7058 11.1939 10.5892 11.0774C10.4727 10.9608 10.3242 10.8815 10.1625 10.8493C10.0009 10.8172 9.83333 10.8337 9.68106 10.8967C9.52878 10.9598 9.39864 11.0666 9.30707 11.2037C9.2155 11.3407 9.16663 11.5018 9.16663 11.6666C9.16663 11.8877 9.25442 12.0996 9.4107 12.2559C9.56698 12.4122 9.77895 12.5 9.99996 12.5ZM15.8333 2.49998H15V1.66665C15 1.44563 14.9122 1.23367 14.7559 1.07739C14.5996 0.92111 14.3876 0.833313 14.1666 0.833313C13.9456 0.833313 13.7337 0.92111 13.5774 1.07739C13.4211 1.23367 13.3333 1.44563 13.3333 1.66665V2.49998H6.66663V1.66665C6.66663 1.44563 6.57883 1.23367 6.42255 1.07739C6.26627 0.92111 6.05431 0.833313 5.83329 0.833313C5.61228 0.833313 5.40032 0.92111 5.24404 1.07739C5.08776 1.23367 4.99996 1.44563 4.99996 1.66665V2.49998H4.16663C3.50358 2.49998 2.8677 2.76337 2.39886 3.23221C1.93002 3.70105 1.66663 4.33694 1.66663 4.99998V16.6666C1.66663 17.3297 1.93002 17.9656 2.39886 18.4344C2.8677 18.9033 3.50358 19.1666 4.16663 19.1666H15.8333C16.4963 19.1666 17.1322 18.9033 17.6011 18.4344C18.0699 17.9656 18.3333 17.3297 18.3333 16.6666V4.99998C18.3333 4.33694 18.0699 3.70105 17.6011 3.23221C17.1322 2.76337 16.4963 2.49998 15.8333 2.49998ZM16.6666 16.6666C16.6666 16.8877 16.5788 17.0996 16.4225 17.2559C16.2663 17.4122 16.0543 17.5 15.8333 17.5H4.16663C3.94561 17.5 3.73365 17.4122 3.57737 17.2559C3.42109 17.0996 3.33329 16.8877 3.33329 16.6666V9.16665H16.6666V16.6666ZM16.6666 7.49998H3.33329V4.99998C3.33329 4.77897 3.42109 4.567 3.57737 4.41072C3.73365 4.25444 3.94561 4.16665 4.16663 4.16665H4.99996V4.99998C4.99996 5.22099 5.08776 5.43295 5.24404 5.58923C5.40032 5.74551 5.61228 5.83331 5.83329 5.83331C6.05431 5.83331 6.26627 5.74551 6.42255 5.58923C6.57883 5.43295 6.66663 5.22099 6.66663 4.99998V4.16665H13.3333V4.99998C13.3333 5.22099 13.4211 5.43295 13.5774 5.58923C13.7337 5.74551 13.9456 5.83331 14.1666 5.83331C14.3876 5.83331 14.5996 5.74551 14.7559 5.58923C14.9122 5.43295 15 5.22099 15 4.99998V4.16665H15.8333C16.0543 4.16665 16.2663 4.25444 16.4225 4.41072C16.5788 4.567 16.6666 4.77897 16.6666 4.99998V7.49998ZM5.83329 12.5C5.99811 12.5 6.15923 12.4511 6.29627 12.3595C6.43331 12.268 6.54012 12.1378 6.60319 11.9855C6.66627 11.8333 6.68277 11.6657 6.65061 11.5041C6.61846 11.3424 6.53909 11.1939 6.42255 11.0774C6.306 10.9608 6.15752 10.8815 5.99587 10.8493C5.83422 10.8172 5.66666 10.8337 5.51439 10.8967C5.36212 10.9598 5.23197 11.0666 5.1404 11.2037C5.04883 11.3407 4.99996 11.5018 4.99996 11.6666C4.99996 11.8877 5.08776 12.0996 5.24404 12.2559C5.40032 12.4122 5.61228 12.5 5.83329 12.5ZM5.83329 15.8333C5.99811 15.8333 6.15923 15.7844 6.29627 15.6929C6.43331 15.6013 6.54012 15.4712 6.60319 15.3189C6.66627 15.1666 6.68277 14.9991 6.65061 14.8374C6.61846 14.6758 6.53909 14.5273 6.42255 14.4107C6.306 14.2942 6.15752 14.2148 5.99587 14.1827C5.83422 14.1505 5.66666 14.167 5.51439 14.2301C5.36212 14.2932 5.23197 14.4 5.1404 14.537C5.04883 14.674 4.99996 14.8352 4.99996 15C4.99996 15.221 5.08776 15.433 5.24404 15.5892C5.40032 15.7455 5.61228 15.8333 5.83329 15.8333Z" fill="black"/>
</svg>
