<svg width="34" height="34" viewBox="0 0 34 34" fill="none" xmlns="http://www.w3.org/2000/svg">
<path d="M16.9993 18.4166C16.568 18.4115 16.1455 18.5388 15.7887 18.7811C15.4319 19.0234 15.1579 19.3693 15.0036 19.7721C14.8492 20.1748 14.822 20.6152 14.9256 21.034C15.0291 21.4527 15.2584 21.8296 15.5827 22.1141V24.0833C15.5827 24.459 15.7319 24.8193 15.9976 25.085C16.2633 25.3507 16.6236 25.4999 16.9993 25.4999C17.3751 25.4999 17.7354 25.3507 18.0011 25.085C18.2668 24.8193 18.416 24.459 18.416 24.0833V22.1141C18.7403 21.8296 18.9696 21.4527 19.0731 21.034C19.1767 20.6152 19.1495 20.1748 18.9951 19.7721C18.8408 19.3693 18.5668 19.0234 18.21 18.7811C17.8532 18.5388 17.4307 18.4115 16.9993 18.4166ZM24.0827 12.7499V9.91659C24.0827 8.03797 23.3364 6.2363 22.008 4.90791C20.6796 3.57953 18.878 2.83325 16.9993 2.83325C15.1207 2.83325 13.3191 3.57953 11.9907 4.90791C10.6623 6.2363 9.91602 8.03797 9.91602 9.91659V12.7499C8.78885 12.7499 7.70784 13.1977 6.91081 13.9947C6.11378 14.7917 5.66602 15.8727 5.66602 16.9999V26.9166C5.66602 28.0438 6.11378 29.1248 6.91081 29.9218C7.70784 30.7188 8.78885 31.1666 9.91602 31.1666H24.0827C25.2099 31.1666 26.2909 30.7188 27.0879 29.9218C27.8849 29.1248 28.3327 28.0438 28.3327 26.9166V16.9999C28.3327 15.8727 27.8849 14.7917 27.0879 13.9947C26.2909 13.1977 25.2099 12.7499 24.0827 12.7499ZM12.7493 9.91659C12.7493 8.78942 13.1971 7.70841 13.9941 6.91138C14.7912 6.11435 15.8722 5.66659 16.9993 5.66659C18.1265 5.66659 19.2075 6.11435 20.0046 6.91138C20.8016 7.70841 21.2493 8.78942 21.2493 9.91659V12.7499H12.7493V9.91659ZM25.4993 26.9166C25.4993 27.2923 25.3501 27.6526 25.0844 27.9183C24.8187 28.184 24.4584 28.3333 24.0827 28.3333H9.91602C9.54029 28.3333 9.17996 28.184 8.91428 27.9183C8.6486 27.6526 8.49935 27.2923 8.49935 26.9166V16.9999C8.49935 16.6242 8.6486 16.2639 8.91428 15.9982C9.17996 15.7325 9.54029 15.5833 9.91602 15.5833H24.0827C24.4584 15.5833 24.8187 15.7325 25.0844 15.9982C25.3501 16.2639 25.4993 16.6242 25.4993 16.9999V26.9166Z" fill="white"/>
</svg>
