<svg width="27" height="27" viewBox="0 0 27 27" fill="none" xmlns="http://www.w3.org/2000/svg">
<path d="M22.5 8.99995L15.75 3.08245C15.1312 2.529 14.3302 2.22302 13.5 2.22302C12.6698 2.22302 11.8688 2.529 11.25 3.08245L4.49998 8.99995C4.14265 9.31953 3.8575 9.71157 3.66352 10.15C3.46953 10.5884 3.37117 11.0631 3.37498 11.5424V21.3749C3.37498 22.2701 3.73056 23.1285 4.3635 23.7614C4.99643 24.3944 5.85488 24.7499 6.74998 24.7499H20.25C21.1451 24.7499 22.0035 24.3944 22.6365 23.7614C23.2694 23.1285 23.625 22.2701 23.625 21.3749V11.5312C23.6272 11.0537 23.5281 10.5812 23.3341 10.1448C23.1402 9.7085 22.8559 9.31827 22.5 8.99995ZM15.75 22.4999H11.25V16.8749C11.25 16.5766 11.3685 16.2904 11.5795 16.0795C11.7905 15.8685 12.0766 15.7499 12.375 15.7499H14.625C14.9234 15.7499 15.2095 15.8685 15.4205 16.0795C15.6315 16.2904 15.75 16.5766 15.75 16.8749V22.4999ZM21.375 21.3749C21.375 21.6733 21.2565 21.9595 21.0455 22.1704C20.8345 22.3814 20.5484 22.4999 20.25 22.4999H18V16.8749C18 15.9798 17.6444 15.1214 17.0115 14.4885C16.3785 13.8555 15.5201 13.4999 14.625 13.4999H12.375C11.4799 13.4999 10.6214 13.8555 9.9885 14.4885C9.35556 15.1214 8.99998 15.9798 8.99998 16.8749V22.4999H6.74998C6.45162 22.4999 6.16547 22.3814 5.95449 22.1704C5.74351 21.9595 5.62498 21.6733 5.62498 21.3749V11.5312C5.62519 11.3715 5.6594 11.2136 5.72535 11.0681C5.79131 10.9226 5.88748 10.7929 6.00748 10.6874L12.7575 4.7812C12.9628 4.60084 13.2267 4.50137 13.5 4.50137C13.7733 4.50137 14.0372 4.60084 14.2425 4.7812L20.9925 10.6874C21.1125 10.7929 21.2087 10.9226 21.2746 11.0681C21.3406 11.2136 21.3748 11.3715 21.375 11.5312V21.3749Z" fill="#036CFF"/>
</svg>
