<svg width="22" height="9" viewBox="0 0 22 9" fill="none" xmlns="http://www.w3.org/2000/svg">
<mask id="mask0_598_3146" style="mask-type:luminance" maskUnits="userSpaceOnUse" x="-7" y="-11" width="36" height="24">
<path d="M-6.35033 -10.5041H28.526V12.3933H-6.35033V-10.5041Z" fill="white"/>
</mask>
<g mask="url(#mask0_598_3146)">
<path d="M20.7628 2.66361C20.8586 2.65916 20.9708 2.66233 21.0683 2.665C21.1658 2.66767 21.2486 2.66989 21.2855 2.66361C21.3496 2.65265 21.3529 2.63642 21.3493 2.61713C21.3458 2.59783 21.3355 2.57554 21.3726 2.55241C21.501 2.4723 21.6548 1.92171 21.7321 1.36757C21.8095 0.813426 21.8106 0.255781 21.6339 0.16171C21.5663 0.125683 21.2951 0.125683 21.0132 0.13469C20.7312 0.143697 20.4384 0.16171 20.3273 0.16171C18.9385 0.16171 17.593 0.140194 16.2112 0.129408C14.8295 0.118622 13.4116 0.118678 11.8783 0.16171C10.5919 0.197793 9.30129 0.230429 8.0085 0.244718C6.7157 0.258951 5.42073 0.254836 4.12603 0.217308C3.52518 0.199906 2.93079 0.16399 2.34824 0.136469C1.76569 0.108948 1.19507 0.0898224 0.641878 0.106113C0.581776 0.107892 0.564268 0.131132 0.559565 0.163211C0.554861 0.195291 0.563136 0.2361 0.554774 0.272906C0.403301 0.94169 0.305309 1.74691 0.261496 2.61479C0.217682 3.48262 0.228048 4.4131 0.293463 5.3323C0.345638 6.06502 0.490056 7.54598 0.816085 8.33457C1.072 8.95365 1.18427 8.73154 1.94843 8.50137C2.35059 8.38022 2.84238 8.30494 2.99368 8.16778C3.07137 8.09734 3.03993 7.90464 3.08078 7.7786C3.19759 7.41849 3.3373 6.97015 3.5163 6.66664C3.61307 6.7715 3.74773 6.98472 3.86471 7.22262C3.93736 7.37034 4.06531 7.8154 4.12603 7.83419C4.14092 7.83881 4.69864 7.72628 5.08417 7.6118C5.42674 7.51006 5.76784 7.33832 5.9552 7.27822C7.79927 6.68643 8.81961 6.32661 10.3975 5.72148C11.1332 5.43932 11.1468 5.30928 11.7911 5.55469C12.1576 5.69424 12.4359 5.82556 12.7493 5.94387C13.6492 6.28368 14.657 6.72702 15.2753 7.00023C15.4869 7.09374 15.7037 7.17041 15.885 7.22262C15.9132 7.23074 15.9399 7.32008 15.9721 7.33381C16.0122 7.35088 16.1018 7.32103 16.1463 7.33381C16.174 7.34176 16.202 7.43122 16.2334 7.44501C16.388 7.51284 16.6102 7.54497 16.7561 7.6118C16.9235 7.68847 17.0296 7.81907 17.1916 7.88979C17.336 7.95278 17.542 7.98764 17.7142 8.05658C18.2503 8.27108 18.6763 8.54634 19.2821 8.66816C19.8192 7.58045 20.6623 6.1185 21.1112 4.83192C21.2888 4.32281 21.5505 3.73859 21.3726 3.27518C21.272 3.01309 20.9268 2.94026 20.7628 2.66361Z" fill="#9C1B3E"/>
<path d="M20.9594 2.37544C21.0571 2.37132 21.1717 2.37425 21.2713 2.37673C21.3708 2.3792 21.4554 2.38126 21.493 2.37544C21.5585 2.36529 21.5618 2.35025 21.5582 2.33237C21.5546 2.31449 21.5441 2.29383 21.5819 2.2724C21.7131 2.19816 21.8701 1.68797 21.949 1.17448C22.028 0.660987 22.0292 0.14425 21.8487 0.0570801C21.7797 0.0236957 21.5028 0.0236957 21.215 0.0320418C20.9271 0.0403879 20.6281 0.0570801 20.5147 0.0570801C19.0967 0.0570801 17.7229 0.0371423 16.3121 0.0271475C14.9013 0.0171528 13.4536 0.0172043 11.888 0.0570801C10.5746 0.090516 9.25689 0.120758 7.93692 0.133998C6.61696 0.147187 5.29476 0.143375 3.97284 0.108599C3.35937 0.0924737 2.75248 0.0591924 2.15768 0.0336904C1.56289 0.0081885 0.980275 -0.00953406 0.415451 0.005561C0.354086 0.00720959 0.33621 0.0287446 0.331408 0.0584711C0.326605 0.0881976 0.335054 0.126013 0.326516 0.160118C0.171859 0.779842 0.0718076 1.52599 0.0270736 2.33021C-0.0176611 3.13437 -0.00707758 3.99659 0.0597123 4.84836C0.112984 5.52733 0.260438 6.89964 0.59332 7.63039C0.854611 8.20405 0.969247 7.99823 1.74947 7.78495C2.16008 7.67269 2.66221 7.60293 2.81669 7.47583C2.89602 7.41056 2.86391 7.23199 2.90562 7.1152C3.02488 6.78151 3.16754 6.36606 3.3503 6.08482C3.4491 6.18198 3.5866 6.37956 3.70603 6.60001C3.78021 6.73689 3.91085 7.1493 3.97284 7.16672C3.98805 7.17099 4.55749 7.06672 4.95112 6.96064C5.3009 6.86636 5.64917 6.70722 5.84047 6.65153C7.7233 6.10316 8.76508 5.76972 10.3761 5.20899C11.1273 4.94753 11.1412 4.82703 11.7991 5.05443C12.1732 5.18375 12.4574 5.30543 12.7774 5.41507C13.6962 5.72995 14.7252 6.14077 15.3565 6.39393C15.5725 6.48058 15.7939 6.55163 15.979 6.60001C16.0078 6.60753 16.0351 6.69032 16.068 6.70304C16.1089 6.71886 16.2004 6.69119 16.2458 6.70304C16.2741 6.71041 16.3027 6.79331 16.3348 6.80608C16.4926 6.86894 16.7194 6.89871 16.8684 6.96064C17.0393 7.03168 17.1476 7.1527 17.313 7.21824C17.4605 7.27661 17.6708 7.30891 17.8467 7.37279C18.394 7.57155 18.829 7.82662 19.4475 7.9395C19.9959 6.93158 20.8567 5.57689 21.3151 4.38469C21.4964 3.91292 21.7636 3.37156 21.5819 2.94215C21.4792 2.69929 21.1267 2.6318 20.9594 2.37544Z" fill="#DD304D"/>
<path d="M7.2537 2.37574C6.99213 2.83374 6.78287 4.19608 8.03842 5.98208L11.3081 4.86583L14.7085 5.98208C15.0572 5.26648 15.6502 3.6122 15.2317 2.7192C14.8131 1.8262 14.4469 1.37404 14.3162 1.25949L8.29999 1.08776L7.2537 2.37574Z" fill="#FA6569"/>
</g>
</svg>
