<svg width="17" height="17" viewBox="0 0 17 17" fill="none" xmlns="http://www.w3.org/2000/svg">
<path d="M15.2702 5.54282C15.2897 5.39492 15.2999 5.24702 15.2999 5.09998C15.2999 3.07784 13.4784 1.45519 11.4571 1.72974C10.868 0.681697 9.74605 0 8.49996 0C7.25386 0 6.13187 0.681697 5.54282 1.72974C3.51728 1.45519 1.69999 3.07784 1.69999 5.09998C1.69999 5.24702 1.71019 5.39492 1.72974 5.54282C0.681696 6.13272 0 7.25471 0 8.49996C0 9.7452 0.681696 10.8672 1.72974 11.4571C1.71013 11.6039 1.70019 11.7518 1.69999 11.8999C1.69999 13.9221 3.51728 15.5405 5.54282 15.2702C6.13187 16.3182 7.25386 16.9999 8.49996 16.9999C9.74605 16.9999 10.868 16.3182 11.4571 15.2702C13.4784 15.5405 15.2999 13.9221 15.2999 11.8999C15.2999 11.7529 15.2897 11.605 15.2702 11.4571C16.3182 10.8672 16.9999 9.7452 16.9999 8.49996C16.9999 7.25471 16.3182 6.13272 15.2702 5.54282Z" fill="#458EFF"/>
</svg>
