<svg width="33" height="34" viewBox="0 0 33 34" fill="none" xmlns="http://www.w3.org/2000/svg">
<path d="M21.4073 14.5491L14.7175 10.4549C14.3109 10.2064 13.8497 10.0755 13.3802 10.0753C12.9107 10.0752 12.4494 10.2059 12.0427 10.4542C11.636 10.7025 11.2982 11.0598 11.0631 11.4901C10.828 11.9204 10.704 12.4086 10.7036 12.9058V21.0941C10.704 21.5909 10.8279 22.0789 11.0628 22.5091C11.2976 22.9393 11.6351 23.2965 12.0415 23.5449C12.4483 23.7936 12.9098 23.9245 13.3795 23.9245C13.8492 23.9245 14.3107 23.7936 14.7175 23.5449L21.4073 19.4508C21.8128 19.2017 22.1494 18.8442 22.3834 18.4141C22.6173 17.9839 22.7405 17.4963 22.7405 16.9999C22.7405 16.5035 22.6173 16.0159 22.3834 15.5858C22.1494 15.1556 21.8128 14.7982 21.4073 14.5491ZM20.0693 16.9999L13.3795 21.0941V12.9058L20.0693 16.9999ZM16.0554 2.83325C13.4092 2.83325 10.8224 3.66411 8.62209 5.22077C6.42182 6.77742 4.70692 8.98995 3.69425 11.5786C2.68158 14.1672 2.41662 17.0156 2.93287 19.7637C3.44913 22.5118 4.72342 25.036 6.59459 27.0173C8.46576 28.9985 10.8498 30.3478 13.4452 30.8944C16.0406 31.441 18.7308 31.1605 21.1756 30.0882C23.6204 29.016 25.71 27.2002 27.1802 24.8705C28.6503 22.5408 29.435 19.8018 29.435 16.9999C29.435 15.1395 29.089 13.2973 28.4166 11.5786C27.7442 9.85979 26.7587 8.29807 25.5162 6.98257C24.2738 5.66708 22.7989 4.62357 21.1756 3.91163C19.5523 3.19968 17.8125 2.83325 16.0554 2.83325ZM16.0554 28.3333C13.9384 28.3333 11.869 27.6686 10.1088 26.4232C8.34854 25.1779 6.97662 23.4079 6.16648 21.337C5.35635 19.2661 5.14438 16.9873 5.55738 14.7889C5.97039 12.5904 6.98982 10.571 8.48676 8.98604C9.9837 7.40105 11.8909 6.32165 13.9672 5.88435C16.0435 5.44705 18.1957 5.67149 20.1515 6.52928C22.1074 7.38708 23.7791 8.8397 24.9552 10.7035C26.1314 12.5672 26.7591 14.7584 26.7591 16.9999C26.7591 20.0057 25.6314 22.8884 23.6241 25.0138C21.6167 27.1392 18.8942 28.3333 16.0554 28.3333Z" fill="white"/>
</svg>
