<svg width="150" height="149" viewBox="0 0 150 149" fill="none" xmlns="http://www.w3.org/2000/svg">
<path d="M92.1851 145.222L91.0574 146.35C90.8433 146.564 90.8433 146.911 91.0574 147.125L92.1851 148.253C92.3991 148.467 92.7462 148.467 92.9603 148.253L94.088 147.125C94.302 146.911 94.302 146.564 94.088 146.35L92.9603 145.222C92.7462 145.008 92.3991 145.008 92.1851 145.222Z" fill="#FFFDFC"/>
<path d="M62.4985 147.077L61.323 148.15C61.2697 148.199 61.2073 148.236 61.1395 148.261C61.0716 148.285 60.9995 148.296 60.9274 148.293C60.8553 148.29 60.7846 148.272 60.7193 148.241C60.654 148.211 60.5955 148.167 60.547 148.114L59.4739 146.938C59.4251 146.885 59.3874 146.823 59.3629 146.755C59.3383 146.687 59.3274 146.615 59.3308 146.543C59.3342 146.471 59.3518 146.4 59.3826 146.335C59.4133 146.269 59.4567 146.211 59.5102 146.162L60.689 145.089C60.7422 145.04 60.8046 145.003 60.8725 144.978C60.9404 144.954 61.0124 144.943 61.0845 144.946C61.1566 144.949 61.2273 144.967 61.2926 144.998C61.3579 145.029 61.4165 145.072 61.4649 145.125L62.5381 146.301C62.5866 146.354 62.6241 146.417 62.6483 146.485C62.6726 146.553 62.6832 146.625 62.6795 146.697C62.6758 146.769 62.6579 146.84 62.6269 146.905C62.5958 146.97 62.5522 147.029 62.4985 147.077Z" fill="#FFFDFC"/>
<path d="M124.857 49.4042C124.857 76.6884 103.856 98.8083 77.9486 98.8083C52.0413 98.8083 31.0606 76.6851 31.0606 49.4042C31.015 38.3618 34.5652 27.6046 41.1745 18.7585C35.3322 26.786 32.1959 36.4644 32.2196 46.3928C32.2031 72.0161 52.5862 92.7855 77.7274 92.7855C102.869 92.7855 123.255 72.0161 123.255 46.3928C123.256 43.5402 123 40.6934 122.489 37.8869C122.269 36.6365 121.994 35.406 121.663 34.1953C116.413 14.5287 98.7709 0.0363217 77.8034 0H77.9486C99.5865 0 117.813 15.4301 123.215 36.4109C123.548 37.7009 123.831 39.0106 124.064 40.3402C124.592 43.3327 124.857 46.3655 124.857 49.4042Z" fill="#C6A034"/>
<path d="M122.489 37.8869C122.269 36.6365 121.994 35.406 121.664 34.1953C116.414 14.5287 98.7711 0.0363217 77.8036 0H77.3413C62.6706 0.198119 49.6311 7.48558 41.1582 18.7585C35.3159 26.786 32.1796 36.4644 32.2033 46.3928C32.2033 72.0161 52.5864 92.7855 77.7276 92.7855C102.869 92.7855 123.255 72.0161 123.255 46.3928C123.256 43.5402 123 40.6934 122.489 37.8869ZM38.8105 56.9095C38.1306 53.9005 37.7884 50.8249 37.7902 47.74C37.7902 25.2139 55.7497 6.95726 77.9092 6.95726C83.0024 6.95063 88.0485 7.93182 92.7681 9.84649L38.8105 56.9095ZM66.6693 58.0784C66.509 57.9713 66.3597 57.8485 66.2235 57.7119L58.629 50.1174C57.593 49.0814 57.011 47.6763 57.011 46.2111C57.011 45.4857 57.1539 44.7673 57.4315 44.0971C57.7091 43.4269 58.116 42.8179 58.629 42.3049C59.142 41.7919 59.751 41.385 60.4212 41.1074C61.0914 40.8298 61.8098 40.6869 62.5352 40.6869C64.0003 40.6869 65.4055 41.2689 66.4415 42.3049L73.7058 49.5693L89.4992 33.7759C90.0016 33.2665 90.5998 32.8614 91.2594 32.5841C91.919 32.3068 92.6269 32.1627 93.3425 32.1602C94.058 32.1576 94.7669 32.2966 95.4285 32.5692C96.0901 32.8417 96.6912 33.2425 97.1972 33.7483C97.7033 34.2541 98.1043 34.8551 98.3771 35.5165C98.65 36.178 98.7893 36.8869 98.787 37.6024C98.7848 38.3179 98.641 39.0259 98.364 39.6856C98.087 40.3454 97.6822 40.9438 97.1729 41.4464L77.7804 60.8389C76.6728 61.9457 75.171 62.5674 73.6051 62.5674C72.0392 62.5674 70.5374 61.9457 69.4297 60.8389L66.6693 58.0784ZM77.896 88.5227C75.1701 88.5242 72.4514 88.2443 69.7831 87.6873L117.975 45.6597C118.013 46.3509 118.03 47.0443 118.028 47.74C118.028 70.2627 100.065 88.5227 77.9092 88.5227H77.896Z" fill="#F7CA45"/>
<path d="M92.7657 9.84663L38.8114 56.9097C38.1315 53.9006 37.7893 50.8251 37.7911 47.7401C37.7911 25.214 55.7506 6.9574 77.9101 6.9574C83.0022 6.95119 88.0472 7.93237 92.7657 9.84663Z" fill="#F8DE4A"/>
<path d="M118.029 47.7402C118.029 70.263 100.066 88.5229 77.9099 88.5229C75.184 88.5245 72.4653 88.2445 69.7969 87.6875L117.976 45.66C118.013 46.3512 118.031 47.0446 118.029 47.7402Z" fill="#F8DE4A"/>
<path d="M98.7513 37.5999C98.7523 38.3125 98.6124 39.0183 98.3399 39.6767C98.0673 40.3352 97.6674 40.9333 97.1631 41.4368L77.7706 60.8293C76.6629 61.9361 75.1611 62.5578 73.5952 62.5578C72.0294 62.5578 70.5276 61.9361 69.4199 60.8293L66.6693 58.0788C66.509 57.9716 66.3597 57.8488 66.2236 57.7122L58.629 50.1177C57.593 49.0817 57.011 47.6766 57.011 46.2115C57.011 45.486 57.1539 44.7677 57.4315 44.0974C57.7092 43.4272 58.1161 42.8182 58.629 42.3052C59.142 41.7922 59.751 41.3853 60.4212 41.1077C61.0915 40.8301 61.8098 40.6872 62.5353 40.6872C64.0004 40.6872 65.4055 41.2692 66.4415 42.3052L73.7059 49.5696L89.4992 33.7762C90.2586 33.023 91.2236 32.5111 92.2731 32.3048C93.3226 32.0985 94.4096 32.207 95.3976 32.6166C96.3856 33.0263 97.2304 33.7188 97.8259 34.6072C98.4215 35.4957 98.7411 36.5403 98.7447 37.6098L98.7513 37.5999Z" fill="#C27D29"/>
<path d="M143.001 21.6646L141.083 18.0721C141.035 17.9834 140.963 17.9102 140.875 17.8607L137.322 15.8795C137.239 15.8334 137.171 15.7661 137.123 15.6845C137.075 15.603 137.05 15.5101 137.05 15.4156C137.05 15.3211 137.075 15.2283 137.123 15.1467C137.171 15.0652 137.239 14.9979 137.322 14.9517L140.928 13.0299C141.016 12.9819 141.09 12.9098 141.139 12.8219L143.12 9.26899C143.166 9.18641 143.233 9.11758 143.314 9.06965C143.396 9.02172 143.488 8.99644 143.583 8.99644C143.677 8.99644 143.77 9.02172 143.851 9.06965C143.932 9.11758 143.999 9.18641 144.045 9.26899L145.967 12.878C146.014 12.9675 146.086 13.041 146.175 13.0894L149.728 15.0706C149.81 15.1162 149.879 15.1832 149.927 15.2645C149.975 15.3458 150 15.4385 150 15.5328C150 15.6272 149.975 15.7199 149.927 15.8012C149.879 15.8825 149.81 15.9494 149.728 15.9951L146.135 17.9136C146.046 17.9605 145.972 18.0329 145.924 18.1216L143.942 21.6745C143.897 21.7608 143.829 21.8329 143.746 21.8828C143.662 21.9328 143.566 21.9587 143.469 21.9577C143.372 21.9566 143.276 21.9287 143.194 21.877C143.111 21.8253 143.045 21.7518 143.001 21.6646Z" fill="white"/>
<path d="M5.95143 68.6817L4.03298 65.0892C3.98494 65.0006 3.91282 64.9273 3.82495 64.8779L0.272024 62.8967C0.18953 62.8505 0.120842 62.7832 0.0730268 62.7017C0.0252119 62.6201 0 62.5273 0 62.4328C0 62.3382 0.0252119 62.2454 0.0730268 62.1639C0.120842 62.0823 0.18953 62.015 0.272024 61.9688L4.08912 60.5221C4.17776 60.474 4.03969 59.9269 4.08912 59.8391L6.0703 56.2861C6.11599 56.2036 6.18295 56.1347 6.26425 56.0868C6.34555 56.0389 6.4382 56.0136 6.53258 56.0136C6.62695 56.0136 6.7196 56.0389 6.80089 56.0868C6.88219 56.1347 6.94916 56.2036 6.99485 56.2861L8.9166 59.8952C8.96357 59.9846 9.03595 60.0581 9.12463 60.1065L12.6775 62.0877C12.7601 62.1334 12.829 62.2004 12.8769 62.2817C12.9248 62.363 12.9501 62.4556 12.9501 62.55C12.9501 62.6444 12.9248 62.737 12.8769 62.8183C12.829 62.8996 12.7601 62.9666 12.6775 63.0123L9.085 64.9307C8.99557 64.9777 8.92205 65.0501 8.87368 65.1387L6.89249 68.6917C6.84731 68.7779 6.77918 68.85 6.69561 68.9C6.61204 68.9499 6.51628 68.9758 6.41892 68.9748C6.32156 68.9738 6.22638 68.9459 6.14388 68.8942C6.06138 68.8424 5.99478 68.7689 5.95143 68.6817Z" fill="white"/>
</svg>
