<svg width="20" height="20" viewBox="0 0 20 20" fill="none" xmlns="http://www.w3.org/2000/svg">
<path fill-rule="evenodd" clip-rule="evenodd" d="M13.125 3.75C13.125 2.36929 14.2443 1.25 15.625 1.25C17.0057 1.25 18.125 2.36929 18.125 3.75C18.125 5.13071 17.0057 6.25 15.625 6.25C14.9111 6.25 14.2676 5.95062 13.8126 5.47186L6.79494 9.37057C6.84721 9.57195 6.875 9.78296 6.875 10C6.875 10.217 6.84721 10.4281 6.79494 10.6294L13.8126 14.5281C14.2676 14.0494 14.9111 13.75 15.625 13.75C17.0057 13.75 18.125 14.8693 18.125 16.25C18.125 17.6307 17.0057 18.75 15.625 18.75C14.2443 18.75 13.125 17.6307 13.125 16.25C13.125 16.033 13.1528 15.8219 13.2051 15.6206L6.1874 11.7219C5.73237 12.2006 5.08889 12.5 4.375 12.5C2.99429 12.5 1.875 11.3807 1.875 10C1.875 8.61929 2.99429 7.5 4.375 7.5C5.08889 7.5 5.73237 7.79938 6.1874 8.27814L13.2051 4.37943C13.1528 4.17805 13.125 3.96704 13.125 3.75Z" fill="#036CFF"/>
</svg>
