<svg width="22" height="22" viewBox="0 0 22 22" fill="none" xmlns="http://www.w3.org/2000/svg">
<g clip-path="url(#clip0_557_3832)">
<path d="M7.33398 9.16667V6.41667C7.33398 4.39175 8.97573 2.75 11.0007 2.75C13.0256 2.75 14.6673 4.39175 14.6673 6.41667V9.16667" stroke="#A2A2A7" stroke-width="1.3" stroke-linecap="round" stroke-linejoin="round"/>
<path d="M15.584 19.25H6.41732C5.4044 19.25 4.58398 18.4295 4.58398 17.4166V11C4.58398 9.98704 5.4044 9.16663 6.41732 9.16663H15.584C16.5969 9.16663 17.4173 9.98704 17.4173 11V17.4166C17.4173 18.4295 16.5969 19.25 15.584 19.25Z" stroke="#A2A2A7" stroke-width="1.3" stroke-linecap="round" stroke-linejoin="round"/>
<path d="M8.25068 14.246C8.24793 14.246 8.24609 14.2478 8.24609 14.2506C8.24609 14.2533 8.24793 14.2551 8.25068 14.2551C8.25343 14.2551 8.25526 14.2533 8.25526 14.2506C8.25526 14.2478 8.25343 14.246 8.25068 14.246Z" stroke="#A2A2A7" stroke-width="1.5" stroke-linecap="round" stroke-linejoin="round"/>
<path d="M11.0046 14.246C11.0018 14.246 11 14.2478 11 14.2506C11 14.2533 11.0046 14.2551 11.0046 14.2551C11.0073 14.2551 11.0092 14.2533 11.0092 14.2506C11.0092 14.2478 11.0073 14.246 11.0046 14.246Z" stroke="#A2A2A7" stroke-width="1.5" stroke-linecap="round" stroke-linejoin="round"/>
<path d="M13.7507 14.246C13.7479 14.246 13.7461 14.2478 13.7461 14.2506C13.7461 14.2533 13.7479 14.2551 13.7507 14.2551C13.7534 14.2551 13.7553 14.2533 13.7553 14.2506C13.7553 14.2478 13.7534 14.246 13.7507 14.246Z" stroke="#A2A2A7" stroke-width="1.5" stroke-linecap="round" stroke-linejoin="round"/>
</g>
<defs>
<clipPath id="clip0_557_3832">
<rect width="22" height="22" fill="white"/>
</clipPath>
</defs>
</svg>
