<svg width="16" height="16" viewBox="0 0 16 16" fill="none" xmlns="http://www.w3.org/2000/svg">
<path fill-rule="evenodd" clip-rule="evenodd" d="M8.00065 14.6668C4.32065 14.6668 1.33398 11.6868 1.33398 8.00016C1.33398 4.32016 4.32065 1.3335 8.00065 1.3335C11.6873 1.3335 14.6673 4.32016 14.6673 8.00016C14.6673 11.6868 11.6873 14.6668 8.00065 14.6668ZM10.1273 10.4735C10.2073 10.5202 10.294 10.5468 10.3873 10.5468C10.554 10.5468 10.7207 10.4602 10.814 10.3002C10.954 10.0668 10.8807 9.76016 10.6407 9.6135L8.26732 8.20016V5.12016C8.26732 4.84016 8.04065 4.62016 7.76732 4.62016C7.49398 4.62016 7.26732 4.84016 7.26732 5.12016V8.48683C7.26732 8.66016 7.36065 8.82016 7.51398 8.9135L10.1273 10.4735Z" fill="#030D13" fill-opacity="0.5"/>
</svg>
