<svg width="17" height="20" viewBox="0 0 17 20" fill="none" xmlns="http://www.w3.org/2000/svg">
<path d="M16.4932 15.586C16.1909 16.2848 15.8329 16.9279 15.4179 17.5194C14.8526 18.3255 14.3896 18.8834 14.0329 19.1934C13.4798 19.702 12.8872 19.9624 12.2527 19.9772C11.7971 19.9772 11.2478 19.8477 10.6083 19.5847C9.9667 19.3229 9.3771 19.1934 8.83798 19.1934C8.27257 19.1934 7.66617 19.3229 7.01755 19.5847C6.36794 19.8477 5.84462 19.9847 5.4445 19.9983C4.83601 20.0241 4.2295 19.7562 3.62407 19.1934C3.23767 18.8563 2.75436 18.2785 2.17535 17.4601C1.55414 16.586 1.04343 15.5724 0.643312 14.4169C0.214808 13.1688 0 11.9602 0 10.7901C0 9.44981 0.289622 8.2938 0.869726 7.32506C1.32564 6.54695 1.93216 5.93313 2.69127 5.48254C3.45039 5.03194 4.2706 4.80231 5.1539 4.78761C5.63723 4.78761 6.27102 4.93713 7.05865 5.23094C7.84406 5.52574 8.34836 5.67525 8.56947 5.67525C8.73477 5.67525 9.29501 5.50043 10.2447 5.15193C11.1428 4.82874 11.9008 4.69491 12.5218 4.74762C14.2045 4.88342 15.4687 5.54673 16.3093 6.74176C14.8045 7.65358 14.06 8.93069 14.0748 10.569C14.0884 11.8452 14.5514 12.9071 15.4612 13.7503C15.8735 14.1416 16.3341 14.4441 16.8463 14.6589C16.7353 14.9811 16.6179 15.2897 16.4932 15.586ZM12.6342 0.400113C12.6342 1.40034 12.2687 2.33425 11.5404 3.19867C10.6614 4.22628 9.59821 4.82009 8.44528 4.7264C8.43059 4.6064 8.42206 4.4801 8.42206 4.34739C8.42206 3.38718 8.84007 2.35955 9.58241 1.51934C9.95301 1.09392 10.4244 0.740188 10.9959 0.458012C11.5663 0.180045 12.1058 0.0263241 12.6132 0C12.628 0.133715 12.6342 0.267438 12.6342 0.400099V0.400113Z" fill="black"/>
</svg>
